<svg width="22" height="31" viewBox="0 0 22 31" fill="none" xmlns="http://www.w3.org/2000/svg">
<path d="M4.71071 5.69985C5.22437 5.6698 5.90493 5.68825 6.43073 5.68834L9.48734 5.68896L11.3628 5.68785C11.7186 5.68723 12.1571 5.66371 12.5039 5.71456C13.5711 5.87119 14.4027 6.8254 14.4138 7.90345C14.4169 8.20537 14.4143 8.50916 14.4131 8.81233L14.4129 10.5367L14.4138 16.497L14.417 23.1383L14.417 25.1777C14.4172 25.4602 14.4325 26.0185 14.4052 26.2865C14.3645 26.7269 14.1957 27.1458 13.9195 27.4913C13.5473 27.9528 13.0095 28.2506 12.4207 28.321C12.0688 28.3565 11.4578 28.3393 11.0825 28.3401L8.3981 28.3359L5.99338 28.339C5.54501 28.3392 5.01632 28.3653 4.57906 28.3027C3.87469 28.2019 3.20227 27.6768 2.90545 27.0354C2.64064 26.4632 2.68001 25.8271 2.67956 25.2162L2.67917 23.5566L2.6791 18.0258L2.68002 11.187L2.68059 8.99207C2.68199 8.60294 2.67505 8.21582 2.70018 7.82744C2.77292 6.70327 3.59043 5.83839 4.71071 5.69985ZM4.2797 8.4972L4.26593 8.46827C4.37319 8.34151 4.46061 8.30333 4.49857 8.25915C4.39571 8.25795 4.25172 8.49912 4.16774 8.52774C4.04931 8.65085 3.95377 8.96665 4.02819 9.12318L4.0316 9.08821C4.04115 9.12487 4.04675 9.14665 4.05192 9.18408C4.0382 9.45186 4.04511 9.75801 4.04509 10.0288L4.04511 11.4222L4.04508 15.6561L4.04601 17.0426C4.04616 17.2185 4.05755 17.5513 4.04456 17.7133C4.05372 18.0078 4.04161 18.2397 4.20136 18.5054C4.48608 18.9787 4.85151 19.0168 5.35664 19.0159L9.91878 19.0236L11.3286 19.0239C11.5576 19.0238 11.9678 19.0316 12.1821 19.0056C12.752 18.9422 13.07 18.526 13.1022 17.9757C13.1131 17.7629 13.1064 17.5092 13.1063 17.2924L13.1065 16.0917L13.1062 12.3958L13.1115 10.3138C13.1142 9.89939 13.1356 9.29466 13.0818 8.89886C12.9419 8.45756 12.706 8.25035 12.268 8.13768C12.028 8.10021 11.5928 8.11061 11.3381 8.11066L9.8518 8.11186C8.27814 8.11177 6.62865 8.08625 5.06077 8.11817C4.65808 8.18377 4.57226 8.21639 4.2797 8.4972ZM8.35525 21.0731C8.58455 21.0994 8.76616 21.0874 8.99012 21.0452C9.31298 20.9602 9.71313 20.7538 9.28226 20.4432C9.00599 20.3107 8.71873 20.2785 8.41659 20.2974C8.22698 20.3274 7.88483 20.3953 7.76994 20.5483C7.49731 20.9116 8.1612 21.0473 8.35525 21.0731ZM7.82652 23.5328C7.48624 23.8734 7.9503 24.0215 8.21813 24.1071C8.49534 24.1604 8.60704 24.1539 8.88532 24.1161C9.07768 24.077 9.64152 23.9102 9.41654 23.6219C9.26493 23.4277 8.94478 23.3803 8.7186 23.3504C8.68811 23.3539 8.59908 23.3482 8.56388 23.3469C8.26974 23.3627 8.08631 23.378 7.82652 23.5328ZM5.29473 25.7887C5.53434 25.7732 6.28095 25.6621 6.10218 25.2913C5.9456 25.1234 5.8296 25.0966 5.61528 25.0423C5.35358 24.9915 5.23766 24.9872 4.97227 25.0219C4.22827 25.1675 4.11729 25.5485 4.92072 25.7578C5.06005 25.7814 5.15361 25.7837 5.29473 25.7887ZM8.96927 25.0425C8.77962 25.0006 8.60535 24.9961 8.4129 25.0066C8.1684 25.0468 7.31668 25.2284 7.90439 25.6317C7.9955 25.6941 8.26285 25.757 8.38227 25.7728C8.73291 25.8182 9.11221 25.7598 9.39769 25.5403C9.63237 25.2424 9.18386 25.0953 8.96927 25.0425ZM11.5084 21.0589C11.5416 21.0574 11.6923 21.0726 11.7404 21.0745C11.9246 21.0819 12.0686 21.0697 12.2516 21.0422C12.5819 20.9499 12.9667 20.7141 12.5012 20.4364C12.3779 20.3854 12.3221 20.3688 12.1933 20.3359C11.9453 20.2866 11.6899 20.2892 11.443 20.3434C11.2746 20.3914 10.8901 20.5106 10.976 20.7491C11.0467 20.9454 11.3427 21.0024 11.5084 21.0589ZM4.34586 22.2841C4.36951 22.3383 4.38444 22.385 4.42545 22.4267L4.42547 22.4373C4.53701 22.537 4.58359 22.5593 4.72289 22.6147C4.94756 22.6744 5.09294 22.6912 5.3194 22.6935C5.6047 22.6752 5.92693 22.6058 6.12552 22.3861C6.24908 21.9544 5.38682 21.9063 5.12423 21.9058C4.81373 21.9499 4.50852 21.9827 4.34586 22.2841ZM8.56508 22.6976C8.63082 22.6931 8.69744 22.6873 8.76327 22.6879C8.98443 22.6602 9.7938 22.4737 9.35325 22.1048C9.09803 21.8911 8.61846 21.8927 8.29125 21.9253C8.01399 21.9793 7.83203 22.0268 7.68291 22.2824C7.75816 22.4495 7.83247 22.5251 8.0087 22.5913C8.06248 22.6111 8.11657 22.63 8.17093 22.6481C8.32894 22.6785 8.40147 22.6882 8.56508 22.6976ZM5.08223 21.0836C5.25455 21.088 5.39442 21.0905 5.56603 21.063C6.05325 20.9514 6.44944 20.6464 5.76817 20.3706C5.65981 20.3437 5.58954 20.3251 5.47727 20.3137L5.28717 20.3018C5.12495 20.3059 5.0001 20.31 4.83969 20.3522C4.33586 20.4845 4.13264 20.7701 4.72551 21.0205C4.82791 21.0461 4.97712 21.0729 5.08223 21.0836ZM4.39153 23.8214C4.57195 24.0286 4.81053 24.0928 5.07788 24.13C5.26344 24.1457 5.36135 24.134 5.54327 24.1129C6.26863 23.9854 6.36708 23.5465 5.59923 23.3797C5.4346 23.344 5.27411 23.3445 5.10637 23.3553C4.88827 23.3819 4.24028 23.4789 4.39153 23.8214ZM9.44316 27.6994C9.58152 27.6968 9.85362 27.7221 9.88953 27.5388C9.84775 27.3826 9.6265 27.3978 9.49943 27.3967C9.34031 27.4081 8.99834 27.3967 8.8262 27.3965L7.58793 27.3964C7.46508 27.399 7.30125 27.4002 7.26658 27.5545C7.30308 27.7329 7.60615 27.6969 7.7494 27.6967L9.44316 27.6994ZM12.5371 23.9772C12.8916 23.7111 12.6518 23.5085 12.3416 23.423C11.9336 23.3105 11.4544 23.3309 11.0815 23.5354C10.7492 23.863 11.1931 24.0241 11.4595 24.1052C11.7785 24.1598 11.8744 24.1546 12.1934 24.1083C12.3323 24.0669 12.403 24.0401 12.5371 23.9772ZM11.717 21.9083C11.483 21.9404 11.1558 21.9826 10.997 22.1854C10.8868 22.3262 11.0326 22.4662 11.1507 22.5407C11.1708 22.5533 11.191 22.5656 11.2114 22.5776C11.5241 22.6731 11.6174 22.6957 11.9485 22.6926C12.2149 22.6734 12.4206 22.6112 12.6426 22.4622C12.8577 22.2017 12.5664 22.0593 12.3556 21.977C12.1064 21.9136 11.9684 21.9039 11.717 21.9083ZM6.15201 6.85496C6.23797 7.00377 6.16574 6.96594 6.17459 7.06755C6.97262 7.03088 7.89701 7.06035 8.70375 7.05915L10.1508 7.05533C10.3925 7.05524 10.6917 7.04804 10.9291 7.06119L10.943 7.04261C10.9093 6.97657 10.9111 6.95003 10.9469 6.88545C10.8969 6.86985 10.3018 6.88501 10.2005 6.8851L7.88336 6.88483C7.64913 6.88514 6.29028 6.90519 6.15201 6.85496ZM11.4046 25.0542C11.2756 25.0967 11.0592 25.1667 11.0006 25.2955C10.8692 25.5844 11.3176 25.7078 11.4932 25.7609C11.8436 25.819 12.1013 25.801 12.4352 25.6862C12.9142 25.4505 12.7138 25.1678 12.3066 25.0627C12.0054 24.9663 11.7064 24.9992 11.4046 25.0542Z" fill="#CD0E01"/>
<path d="M4.71071 5.69985C5.22437 5.6698 5.90493 5.68825 6.43073 5.68834L9.48734 5.68896L11.3628 5.68785C11.7186 5.68723 12.1571 5.66371 12.5039 5.71456C13.5711 5.87119 14.4027 6.8254 14.4138 7.90345C14.4169 8.20537 14.4143 8.50916 14.4131 8.81233L14.4129 10.5367L14.4138 16.497L14.417 23.1383L14.417 25.1777C14.4172 25.4602 14.4325 26.0185 14.4052 26.2865C14.3645 26.7269 14.1957 27.1458 13.9195 27.4913C13.5473 27.9528 13.0095 28.2506 12.4207 28.321C12.0688 28.3565 11.4578 28.3393 11.0825 28.3401L8.3981 28.3359L5.99338 28.339C5.54501 28.3392 5.01632 28.3653 4.57906 28.3027C3.87469 28.2019 3.20227 27.6768 2.90545 27.0354C2.64064 26.4632 2.68001 25.8271 2.67956 25.2162L2.67917 23.5566L2.6791 18.0258L2.68002 11.187L2.68059 8.99207C2.68199 8.60294 2.67505 8.21582 2.70018 7.82744C2.77292 6.70327 3.59043 5.83839 4.71071 5.69985ZM4.2797 8.4972L4.26593 8.46827C4.37319 8.34151 4.46061 8.30333 4.49857 8.25915C4.39571 8.25795 4.25172 8.49912 4.16774 8.52774C4.04931 8.65085 3.95377 8.96665 4.02819 9.12318L4.0316 9.08821C4.04115 9.12487 4.04675 9.14665 4.05192 9.18408C4.0382 9.45186 4.04511 9.75801 4.04509 10.0288L4.04511 11.4222L4.04508 15.6561L4.04601 17.0426C4.04616 17.2185 4.05755 17.5513 4.04456 17.7133C4.05372 18.0078 4.04161 18.2397 4.20136 18.5054C4.48608 18.9787 4.85151 19.0168 5.35664 19.0159L9.91878 19.0236L11.3286 19.0239C11.5576 19.0238 11.9678 19.0316 12.1821 19.0056C12.752 18.9422 13.07 18.526 13.1022 17.9757C13.1131 17.7629 13.1064 17.5092 13.1063 17.2924L13.1065 16.0917L13.1062 12.3958L13.1115 10.3138C13.1142 9.89939 13.1356 9.29466 13.0818 8.89886C12.9419 8.45756 12.706 8.25035 12.268 8.13768C12.028 8.10021 11.5928 8.11061 11.3381 8.11066L9.8518 8.11186C8.27814 8.11177 6.62865 8.08625 5.06077 8.11817C4.65808 8.18377 4.57226 8.21639 4.2797 8.4972ZM8.35525 21.0731C8.58455 21.0994 8.76616 21.0874 8.99012 21.0452C9.31298 20.9602 9.71313 20.7538 9.28226 20.4432C9.00599 20.3107 8.71873 20.2785 8.41659 20.2974C8.22698 20.3274 7.88483 20.3953 7.76994 20.5483C7.49731 20.9116 8.1612 21.0473 8.35525 21.0731ZM7.82652 23.5328C7.48624 23.8734 7.9503 24.0215 8.21813 24.1071C8.49534 24.1604 8.60704 24.1539 8.88532 24.1161C9.07768 24.077 9.64152 23.9102 9.41654 23.6219C9.26493 23.4277 8.94478 23.3803 8.7186 23.3504C8.68811 23.3539 8.59908 23.3482 8.56388 23.3469C8.26974 23.3627 8.08631 23.378 7.82652 23.5328ZM5.29473 25.7887C5.53434 25.7732 6.28095 25.6621 6.10218 25.2913C5.9456 25.1234 5.8296 25.0966 5.61528 25.0423C5.35358 24.9915 5.23766 24.9872 4.97227 25.0219C4.22827 25.1675 4.11729 25.5485 4.92072 25.7578C5.06005 25.7814 5.15361 25.7837 5.29473 25.7887ZM8.96927 25.0425C8.77962 25.0006 8.60535 24.9961 8.4129 25.0066C8.1684 25.0468 7.31668 25.2284 7.90439 25.6317C7.9955 25.6941 8.26285 25.757 8.38227 25.7728C8.73291 25.8182 9.11221 25.7598 9.39769 25.5403C9.63237 25.2424 9.18386 25.0953 8.96927 25.0425ZM11.5084 21.0589C11.5416 21.0574 11.6923 21.0726 11.7404 21.0745C11.9246 21.0819 12.0686 21.0697 12.2516 21.0422C12.5819 20.9499 12.9667 20.7141 12.5012 20.4364C12.3779 20.3854 12.3221 20.3688 12.1933 20.3359C11.9453 20.2866 11.6899 20.2892 11.443 20.3434C11.2746 20.3914 10.8901 20.5106 10.976 20.7491C11.0467 20.9454 11.3427 21.0024 11.5084 21.0589ZM4.34586 22.2841C4.36951 22.3383 4.38444 22.385 4.42545 22.4267L4.42547 22.4373C4.53701 22.537 4.58359 22.5593 4.72289 22.6147C4.94756 22.6744 5.09294 22.6912 5.3194 22.6935C5.6047 22.6752 5.92693 22.6058 6.12552 22.3861C6.24908 21.9544 5.38682 21.9063 5.12423 21.9058C4.81373 21.9499 4.50852 21.9827 4.34586 22.2841ZM8.56508 22.6976C8.63082 22.6931 8.69744 22.6873 8.76327 22.6879C8.98443 22.6602 9.7938 22.4737 9.35325 22.1048C9.09803 21.8911 8.61846 21.8927 8.29125 21.9253C8.01399 21.9793 7.83203 22.0268 7.68291 22.2824C7.75816 22.4495 7.83247 22.5251 8.0087 22.5913C8.06248 22.6111 8.11657 22.63 8.17093 22.6481C8.32894 22.6785 8.40147 22.6882 8.56508 22.6976ZM5.08223 21.0836C5.25455 21.088 5.39442 21.0905 5.56603 21.063C6.05325 20.9514 6.44944 20.6464 5.76817 20.3706C5.65981 20.3437 5.58954 20.3251 5.47727 20.3137L5.28717 20.3018C5.12495 20.3059 5.0001 20.31 4.83969 20.3522C4.33586 20.4845 4.13264 20.7701 4.72551 21.0205C4.82791 21.0461 4.97712 21.0729 5.08223 21.0836ZM4.39153 23.8214C4.57195 24.0286 4.81053 24.0928 5.07788 24.13C5.26344 24.1457 5.36135 24.134 5.54327 24.1129C6.26863 23.9854 6.36708 23.5465 5.59923 23.3797C5.4346 23.344 5.27411 23.3445 5.10637 23.3553C4.88827 23.3819 4.24028 23.4789 4.39153 23.8214ZM9.44316 27.6994C9.58152 27.6968 9.85362 27.7221 9.88953 27.5388C9.84775 27.3826 9.6265 27.3978 9.49943 27.3967C9.34031 27.4081 8.99834 27.3967 8.8262 27.3965L7.58793 27.3964C7.46508 27.399 7.30125 27.4002 7.26658 27.5545C7.30308 27.7329 7.60615 27.6969 7.7494 27.6967L9.44316 27.6994ZM12.5371 23.9772C12.8916 23.7111 12.6518 23.5085 12.3416 23.423C11.9336 23.3105 11.4544 23.3309 11.0815 23.5354C10.7492 23.863 11.1931 24.0241 11.4595 24.1052C11.7785 24.1598 11.8744 24.1546 12.1934 24.1083C12.3323 24.0669 12.403 24.0401 12.5371 23.9772ZM11.717 21.9083C11.483 21.9404 11.1558 21.9826 10.997 22.1854C10.8868 22.3262 11.0326 22.4662 11.1507 22.5407C11.1708 22.5533 11.191 22.5656 11.2114 22.5776C11.5241 22.6731 11.6174 22.6957 11.9485 22.6926C12.2149 22.6734 12.4206 22.6112 12.6426 22.4622C12.8577 22.2017 12.5664 22.0593 12.3556 21.977C12.1064 21.9136 11.9684 21.9039 11.717 21.9083ZM6.15201 6.85496C6.23797 7.00377 6.16574 6.96594 6.17459 7.06755C6.97262 7.03088 7.89701 7.06035 8.70375 7.05915L10.1508 7.05533C10.3925 7.05524 10.6917 7.04804 10.9291 7.06119L10.943 7.04261C10.9093 6.97657 10.9111 6.95003 10.9469 6.88545C10.8969 6.86985 10.3018 6.88501 10.2005 6.8851L7.88336 6.88483C7.64913 6.88514 6.29028 6.90519 6.15201 6.85496ZM11.4046 25.0542C11.2756 25.0967 11.0592 25.1667 11.0006 25.2955C10.8692 25.5844 11.3176 25.7078 11.4932 25.7609C11.8436 25.819 12.1013 25.801 12.4352 25.6862C12.9142 25.4505 12.7138 25.1678 12.3066 25.0627C12.0054 24.9663 11.7064 24.9992 11.4046 25.0542Z" fill="url(#paint0_linear_41_93)" fill-opacity="0.5"/>
<path d="M11.1412 23.4167C11.5475 23.2391 12.017 23.2312 12.4364 23.3736C12.5962 23.4279 12.8809 23.6232 12.7909 23.8305C12.7612 23.8988 12.6666 23.9921 12.5972 24.0222C12.5292 24.0926 12.2798 24.1926 12.1934 24.1082C12.3323 24.0668 12.403 24.0401 12.5372 23.9772C12.8916 23.711 12.6518 23.5084 12.3417 23.4229C11.9337 23.3104 11.4544 23.3309 11.0815 23.5354C11.0827 23.5028 11.1223 23.4477 11.1412 23.4167Z" fill="#0B0165"/>
<path d="M12.5372 23.9772C12.5966 23.9727 12.6108 23.9728 12.655 23.9321C12.6305 23.9658 12.6208 23.9797 12.5914 24.0086L12.5972 24.0222C12.5291 24.0926 12.2797 24.1926 12.1934 24.1082C12.3323 24.0668 12.403 24.04 12.5372 23.9772Z" fill="#0B0165"/>
<path d="M4.81982 21.8801C5.20624 21.7755 6.01903 21.7973 6.19019 22.2344C6.29166 22.4936 5.85702 22.7006 5.66168 22.7185C5.48189 22.7349 5.19366 22.7624 5.01597 22.7493C5.11179 22.6799 5.18597 22.7108 5.31949 22.6933C5.60479 22.6751 5.92702 22.6056 6.12561 22.3859C6.24917 21.9542 5.38691 21.9061 5.12433 21.9057C4.99321 21.8618 4.95805 21.8768 4.81982 21.8801Z" fill="#0B0165"/>
<path d="M11.222 20.3408C11.2811 20.3577 11.3161 20.3358 11.3723 20.3123C11.4064 20.3169 11.4145 20.3251 11.4428 20.3434C11.2744 20.3914 10.8899 20.5106 10.9759 20.7492C11.0466 20.9455 11.3426 21.0025 11.5082 21.0589C11.5415 21.0575 11.6922 21.0727 11.7402 21.0746C11.9244 21.0819 12.0684 21.0697 12.2514 21.0423C12.2717 21.0514 12.2885 21.0588 12.3082 21.0693L12.2932 21.1063C12.0738 21.1681 11.6331 21.1864 11.4152 21.1152C10.8819 21.0149 10.6362 20.5271 11.222 20.3408Z" fill="#0B0165"/>
<path d="M11.5086 21.0589C11.5418 21.0574 11.6925 21.0726 11.7405 21.0745C11.9247 21.0819 12.0687 21.0697 12.2517 21.0422C12.272 21.0513 12.2889 21.0587 12.3085 21.0692L12.2935 21.1063C12.0741 21.1681 11.6334 21.1863 11.4155 21.1151C11.4614 21.1013 11.648 21.1233 11.732 21.1214C11.7113 21.0998 11.5621 21.0885 11.5211 21.0831L11.5086 21.0589Z" fill="#0B0165"/>
<path d="M8.15479 21.8729C8.5612 21.8 9.20212 21.7897 9.47866 22.1379C9.76694 22.5009 9.08113 22.7648 8.80001 22.7196L8.76308 22.688C8.98424 22.6602 9.79361 22.4737 9.35305 22.1048C9.09784 21.8911 8.61827 21.8927 8.29106 21.9253C8.23648 21.9101 8.2059 21.8955 8.15479 21.8729Z" fill="#0B0165"/>
<path d="M4.8833 23.3046C5.21545 23.2387 5.71889 23.2672 6.00597 23.4555C6.47501 23.7631 6.06624 24.0637 5.70453 24.1523C5.63471 24.1693 5.59733 24.1537 5.54315 24.1128C6.26851 23.9853 6.36696 23.5463 5.59911 23.3796C5.43448 23.3438 5.27398 23.3444 5.10624 23.3551C5.021 23.2878 4.99499 23.3014 4.8833 23.3046Z" fill="#0B0165"/>
<path d="M5.3564 19.0159C5.28195 19.0291 4.99643 19.059 4.92225 19.0597C4.44716 19.0638 3.98135 18.5368 3.97367 18.0737C3.97202 17.9745 4.03067 17.9101 4.00606 17.8042C3.9963 17.7622 4.01931 17.7354 4.04432 17.7134C4.05347 18.0078 4.04136 18.2398 4.20112 18.5054C4.48583 18.9788 4.85127 19.0169 5.3564 19.0159Z" fill="url(#paint1_linear_41_93)"/>
<path d="M4.65369 21.0639C4.59809 21.0449 4.54462 21.0201 4.49418 20.9898C4.33275 20.895 4.20596 20.726 4.34431 20.543C4.50378 20.3322 4.76805 20.2818 5.01504 20.2444C5.11873 20.2561 5.18611 20.2756 5.28692 20.3019C5.12469 20.3059 4.99984 20.3101 4.83943 20.3522C4.3356 20.4846 4.13238 20.7701 4.72525 21.0205C4.82766 21.0461 4.97686 21.073 5.08198 21.0837C5.0762 21.1122 5.07193 21.1113 5.04993 21.1319C4.92241 21.1692 4.7721 21.112 4.65369 21.0639Z" fill="#0B0165"/>
<path d="M4.6537 21.0638L4.66783 21.0567L4.66912 21.0473L4.56689 20.9919C4.62494 21.0141 4.66339 21.0373 4.72526 21.0203C4.82766 21.0459 4.97687 21.0728 5.08198 21.0835C5.0762 21.112 5.07194 21.1111 5.04994 21.1317C4.92242 21.1691 4.7721 21.1119 4.6537 21.0638Z" fill="#0B0165"/>
<path d="M7.61523 25.3806C7.7151 25.1002 8.14846 24.8675 8.41287 25.0065C8.16837 25.0468 7.31665 25.2284 7.90436 25.6316C7.99547 25.6941 8.26282 25.757 8.38224 25.7727C8.3082 25.789 8.30282 25.8219 8.25286 25.8347C7.95498 25.7715 7.69755 25.7041 7.61523 25.3806Z" fill="#0B0165"/>
<path d="M8.19352 21.1299C7.00249 20.8503 7.9936 20.0792 8.4165 20.2974C8.2269 20.3274 7.88475 20.3953 7.76986 20.5484C7.49722 20.9116 8.16112 21.0474 8.35517 21.0731L8.4205 21.1124L8.41584 21.1219C8.36228 21.1382 8.26285 21.1247 8.19352 21.1299Z" fill="#0B0165"/>
<path d="M12.1821 19.0055C12.752 18.9421 13.07 18.5259 13.1022 17.9756C13.1385 18.1235 13.1275 18.1499 13.0891 18.3L13.1083 18.309C13.1377 18.2792 13.1505 18.1357 13.1554 18.0878C13.2349 18.5264 12.6446 19.1252 12.2216 19.0588C12.1946 19.0363 12.1965 19.0378 12.1821 19.0055Z" fill="#0B0165"/>
<path d="M6.14913 25.2461C6.41266 25.5647 5.80579 25.8245 5.56142 25.8282C5.40599 25.8754 5.07718 25.8737 4.91406 25.8297C4.91851 25.8134 4.91957 25.7765 4.92077 25.7579C5.06011 25.7814 5.15367 25.7838 5.29479 25.7887C5.5344 25.7732 6.28101 25.6622 6.10224 25.2914L6.14913 25.2461Z" fill="#0B0165"/>
<path d="M4.92077 25.7578C5.06011 25.7814 5.15367 25.7837 5.29479 25.7887C5.3483 25.7967 5.35799 25.8014 5.40822 25.787L5.43146 25.807C5.39519 25.8108 5.34275 25.81 5.31866 25.8332C5.3919 25.826 5.46497 25.8167 5.53769 25.8052L5.56142 25.8281C5.40599 25.8753 5.07718 25.8736 4.91406 25.8296C4.91851 25.8133 4.91957 25.7764 4.92077 25.7578Z" fill="#0B0165"/>
<path d="M8.71875 23.3502C8.99961 23.269 9.42167 23.3752 9.53096 23.6831C9.61696 23.9254 9.24624 24.118 9.05752 24.1384C8.98538 24.1512 8.95227 24.1325 8.88547 24.116C9.07783 24.0768 9.64168 23.91 9.41669 23.6218C9.26508 23.4275 8.94494 23.3802 8.71875 23.3502Z" fill="#0B0165"/>
<path d="M4.91406 25.8296C4.8021 25.8156 4.69294 25.7846 4.59041 25.7375C4.42522 25.662 4.20564 25.4885 4.3205 25.279C4.42637 25.0859 4.64428 25.0264 4.84224 24.9692L4.97233 25.0218C4.22833 25.1674 4.11735 25.5485 4.92078 25.7578C4.91958 25.7764 4.91851 25.8133 4.91406 25.8296Z" fill="#0B0165"/>
<path d="M8.1203 22.716C7.41445 22.461 7.47597 22.0979 8.15484 21.8728C8.20595 21.8954 8.23653 21.91 8.29111 21.9252C8.01385 21.9792 7.83189 22.0267 7.68277 22.2823C7.75802 22.4494 7.83234 22.5251 8.00857 22.5912C8.06235 22.611 8.11644 22.6299 8.17079 22.648L8.1203 22.716Z" fill="#0B0165"/>
<path d="M11.1623 25.0621C11.2205 25.0579 11.3576 25.0395 11.4043 25.0542C11.2754 25.0967 11.059 25.1666 11.0004 25.2954C10.869 25.5843 11.3174 25.7078 11.4929 25.7609C11.4557 25.8124 11.4757 25.7955 11.4071 25.8199C10.9766 25.6856 10.5926 25.3769 11.1623 25.0621Z" fill="#0B0165"/>
<path d="M5.76806 20.3706C5.83428 20.3479 5.8762 20.3376 5.94073 20.371C6.41386 20.616 6.17812 20.9807 5.77526 21.0905C5.71655 21.1065 5.66165 21.1179 5.60094 21.1001L5.56592 21.063C6.05314 20.9514 6.44933 20.6464 5.76806 20.3706Z" fill="#0B0165"/>
<path d="M8.38231 25.7728C8.73295 25.8182 9.11225 25.7598 9.39773 25.5403L9.41978 25.6272C9.13763 25.8424 8.59245 25.921 8.25293 25.8348C8.30289 25.822 8.30827 25.789 8.38231 25.7728Z" fill="#221F20"/>
<path d="M10.8755 22.2379C11.0041 22.0102 11.1681 21.9459 11.4115 21.8757C11.5246 21.8956 11.6299 21.8792 11.7167 21.9083C11.4828 21.9404 11.1556 21.9826 10.9967 22.1854C10.8865 22.3262 11.0323 22.4662 11.1505 22.5407C11.1705 22.5533 11.1907 22.5656 11.2111 22.5776C11.1619 22.578 11.153 22.578 11.1053 22.568L11.0794 22.578C11.0077 22.5558 10.9317 22.4476 10.8902 22.3898L10.8755 22.2379Z" fill="#0B0165"/>
<path d="M12.2681 8.13771C12.5522 7.94321 13.2826 8.69049 13.0819 8.89889C12.942 8.45759 12.7061 8.25038 12.2681 8.13771Z" fill="#0B0165"/>
<path d="M4.88351 23.3048C4.99521 23.3016 5.02121 23.288 5.10645 23.3553C4.88836 23.382 4.24036 23.479 4.39162 23.8214C4.38406 23.8613 4.37453 23.9019 4.37378 23.9423C4.06598 23.5965 4.61057 23.3538 4.88351 23.3048Z" fill="#0B0165"/>
<path d="M4.81992 21.8802C4.95815 21.8768 4.99331 21.8618 5.12442 21.9057C4.81392 21.9497 4.50871 21.9825 4.34605 22.284C4.3697 22.3382 4.38463 22.3849 4.42564 22.4266L4.42566 22.4372L4.35877 22.477C4.11008 22.157 4.56378 21.9335 4.81992 21.8802Z" fill="#0B0165"/>
<path d="M12.5703 20.3943C13.0391 20.7043 12.6837 21.0303 12.2932 21.1062L12.3083 21.0692C12.2886 21.0587 12.2717 21.0512 12.2515 21.0422C12.5818 20.9499 12.9666 20.714 12.5011 20.4364L12.5703 20.3943Z" fill="#0B0165"/>
<path d="M12.3362 24.9844C12.596 25.0918 13.0395 25.3348 12.6363 25.656C12.602 25.6834 12.5334 25.7199 12.4915 25.7346C12.5102 25.7136 12.5302 25.6952 12.5479 25.6741C12.5279 25.6766 12.4883 25.6934 12.4674 25.7012L12.4353 25.6861C12.9143 25.4504 12.7139 25.1677 12.3066 25.0626L12.3362 24.9844Z" fill="#0B0165"/>
<path d="M11.1412 23.4167C11.1223 23.4478 11.0828 23.5029 11.0816 23.5354C10.7492 23.863 11.1932 24.0241 11.4595 24.1052C11.1985 24.2365 10.5201 23.7655 11.1412 23.4167Z" fill="#0B0165"/>
<path d="M11.1626 25.0622C11.4566 24.905 12.0168 24.9222 12.3362 24.9845L12.3066 25.0628C12.0055 24.9664 11.7065 24.9992 11.4046 25.0543C11.3579 25.0396 11.2208 25.058 11.1626 25.0622Z" fill="#0B0165"/>
<path d="M7.68191 23.5836C7.69418 23.5757 7.70649 23.5679 7.71889 23.5602C7.78361 23.5201 7.77076 23.5198 7.82641 23.5327C7.48613 23.8733 7.95019 24.0214 8.21802 24.107C7.99699 24.2317 7.42728 23.8476 7.68191 23.5836Z" fill="#0B0165"/>
<path d="M9.28238 20.4431C9.44021 20.4116 9.50403 20.5795 9.5571 20.6996C9.45283 20.9771 9.30487 21.0293 9.03255 21.1103C9.01575 21.0949 9.00237 21.0663 8.99023 21.0451C9.31309 20.9601 9.71324 20.7537 9.28238 20.4431Z" fill="#0B0165"/>
<path d="M12.435 25.686L12.4672 25.7012C12.4881 25.6934 12.5277 25.6765 12.5477 25.6741C12.5299 25.6951 12.51 25.7135 12.4913 25.7346C12.2798 25.8666 11.6577 25.8577 11.4072 25.8198C11.4758 25.7953 11.4558 25.8122 11.493 25.7607C11.8435 25.8188 12.1011 25.8008 12.435 25.686Z" fill="#0B0165"/>
<path d="M11.4116 21.8758C11.7559 21.8132 12.1324 21.7996 12.4607 21.9403C12.4237 21.9518 12.3918 21.9634 12.3555 21.977C12.1062 21.9137 11.9683 21.904 11.7168 21.9083C11.63 21.8793 11.5247 21.8957 11.4116 21.8758Z" fill="#0B0165"/>
<path d="M7.74948 27.6966C7.60588 27.7438 7.63148 27.7836 7.46102 27.7627C6.83887 27.6865 7.47485 27.1293 7.58801 27.3964C7.46516 27.3989 7.30133 27.4002 7.26666 27.5545C7.30315 27.7329 7.60623 27.6969 7.74948 27.6966Z" fill="#0B0165"/>
<path d="M11.2222 20.3406C11.5045 20.1895 11.9854 20.2173 12.2977 20.2838L12.1933 20.3357C11.9453 20.2864 11.6899 20.289 11.443 20.3432C11.4146 20.3248 11.4065 20.3167 11.3725 20.312C11.3162 20.3356 11.2813 20.3575 11.2222 20.3406Z" fill="#0B0165"/>
<path d="M11.9485 22.6926C12.2149 22.6733 12.4205 22.6112 12.6425 22.4622C12.671 22.464 12.6972 22.4631 12.7233 22.4722C12.5727 22.6632 12.117 22.7927 11.8883 22.7579C11.88 22.7339 11.8791 22.7353 11.8816 22.7103L11.9485 22.6926Z" fill="url(#paint2_linear_41_93)"/>
<path d="M4.16748 8.52778C4.30088 8.28594 4.77992 7.97593 5.06051 8.1182C4.65782 8.18381 4.572 8.21643 4.27945 8.49724L4.26567 8.46831C4.37293 8.34155 4.46035 8.30337 4.49831 8.25919C4.39545 8.25799 4.25146 8.49915 4.16748 8.52778Z" fill="#0B0165"/>
<path d="M8.96924 25.0423C9.05929 25.0179 9.07715 25.0094 9.17125 25.0331C9.4313 25.0987 9.70069 25.3891 9.4197 25.6271L9.39765 25.5401C9.63233 25.2423 9.18382 25.0952 8.96924 25.0423Z" fill="#0B0165"/>
<path d="M9.49963 27.3967C9.5883 27.3378 9.76928 27.3151 9.84724 27.3789C10.0956 27.5819 9.8724 27.8472 9.60039 27.7173C9.56656 27.7012 9.48172 27.7001 9.44336 27.6994C9.58172 27.6968 9.85382 27.722 9.88973 27.5388C9.84795 27.3825 9.6267 27.3977 9.49963 27.3967Z" fill="#0B0165"/>
<path d="M7.68213 23.5838C7.84454 23.3654 8.31935 23.2055 8.56399 23.347C8.26984 23.3628 8.08641 23.3781 7.82662 23.5329C7.77098 23.52 7.78382 23.5202 7.71911 23.5603C7.70671 23.5681 7.6944 23.5759 7.68213 23.5838Z" fill="#0B0165"/>
<path d="M4.16776 8.52763C4.25174 8.499 4.39573 8.25784 4.49858 8.25904C4.46063 8.30322 4.37321 8.3414 4.26595 8.46816L4.27972 8.49709C4.0965 8.76364 4.07153 8.86382 4.05194 9.18396C4.04677 9.14654 4.04117 9.12476 4.03162 9.08809L4.02821 9.12307C3.95379 8.96653 4.04933 8.65074 4.16776 8.52763Z" fill="#0B0165"/>
<path d="M4.39138 23.8213C4.57179 24.0285 4.81037 24.0927 5.07772 24.1299C5.02416 24.133 4.96887 24.1525 4.92558 24.1542C4.72108 24.1625 4.52752 24.0725 4.37354 23.9421C4.37429 23.9018 4.38381 23.8611 4.39138 23.8213Z" fill="#0B0165"/>
<path d="M12.3555 21.9769C12.3918 21.9633 12.4236 21.9517 12.4607 21.9402C12.6173 22.0083 12.6868 22.0606 12.7832 22.2034C12.7874 22.2526 12.7942 22.3126 12.7938 22.3611C12.7783 22.3882 12.744 22.4567 12.7232 22.4722C12.6971 22.4631 12.6709 22.464 12.6424 22.4621C12.8575 22.2016 12.5662 22.0592 12.3555 21.9769Z" fill="#0B0165"/>
<path d="M4.84229 24.9693C5.04323 24.926 5.54405 24.9418 5.75094 24.9912C5.67498 24.9986 5.67494 24.9998 5.61538 25.0423C5.35368 24.9916 5.23777 24.9873 4.97238 25.0219L4.84229 24.9693Z" fill="#0B0165"/>
<path d="M8.98988 21.0452C9.00201 21.0663 9.01539 21.095 9.03219 21.1104C8.85436 21.1538 8.35532 21.1795 8.19336 21.1298C8.2627 21.1246 8.36212 21.1381 8.41568 21.1218L8.42035 21.1124L8.35501 21.073C8.58431 21.0993 8.76591 21.0873 8.98988 21.0452Z" fill="#0B0165"/>
<path d="M11.0796 22.5779L11.1055 22.5679C11.1532 22.5778 11.1622 22.5778 11.2113 22.5775C11.5241 22.673 11.6173 22.6955 11.9485 22.6925L11.8816 22.7102C11.755 22.6979 11.7445 22.7104 11.6217 22.7265C11.441 22.7504 11.2228 22.6921 11.0796 22.5779Z" fill="#0B0165"/>
<path d="M5.7508 24.9912C5.92587 25.0623 6.03192 25.0933 6.14903 25.2461L6.10214 25.2914C5.94556 25.1235 5.82955 25.0966 5.61523 25.0423C5.67479 24.9998 5.67484 24.9986 5.7508 24.9912Z" fill="#0B0165"/>
<path d="M4.5752 22.6299C4.63982 22.5808 4.63062 22.65 4.72262 22.6146C4.9473 22.6744 5.09268 22.6912 5.31914 22.6934C5.18562 22.7109 5.11144 22.6801 5.01561 22.7495C4.87041 22.7384 4.70218 22.7026 4.5752 22.6299Z" fill="#0B0165"/>
<path d="M12.2978 20.2839C12.4007 20.3102 12.482 20.3326 12.5705 20.3943L12.5013 20.4364C12.378 20.3853 12.3222 20.3687 12.1934 20.3358L12.2978 20.2839Z" fill="#0B0165"/>
<path d="M5.01514 20.2444C5.12172 20.2203 5.44582 20.2126 5.51569 20.2993L5.47711 20.3137L5.28701 20.3019C5.18621 20.2756 5.11883 20.256 5.01514 20.2444Z" fill="#0B0165"/>
<path d="M4.3584 22.4771L4.42529 22.4373C4.53683 22.5369 4.58341 22.5592 4.72271 22.6146C4.6307 22.6499 4.6399 22.5808 4.57528 22.6298C4.48243 22.5918 4.42877 22.5457 4.3584 22.4771Z" fill="#0B0165"/>
<path d="M8.1711 22.6479C8.3291 22.6783 8.40164 22.688 8.56525 22.6974C8.39639 22.7409 8.28932 22.7499 8.12061 22.7159L8.1711 22.6479Z" fill="#0B0165"/>
<path d="M13.1234 1.61133C13.3295 1.61789 13.5468 1.62379 13.7516 1.6454C15.7047 1.85153 17.412 3.32702 17.8703 5.24926C17.957 5.58181 18.0392 6.18219 18.0225 6.5202C17.7526 6.521 17.4623 6.52638 17.1941 6.51753C17.1951 6.5094 17.1959 6.50122 17.1969 6.49309C17.1623 5.46274 16.7746 4.50234 16.0685 3.75043C15.276 2.90649 14.2755 2.48781 13.1277 2.4412C13.1162 2.18131 13.1232 1.87494 13.1234 1.61133Z" fill="#0B0165"/>
<path d="M13.1571 3.28003L13.1689 3.28011C13.9703 3.29218 14.7015 3.55227 15.2667 4.13765C15.8063 4.68687 16.1023 5.43005 16.0882 6.1999C15.8122 6.19777 15.5361 6.19746 15.26 6.19893C15.2152 5.02097 14.3333 4.14165 13.1553 4.10206C13.1592 3.83062 13.1566 3.55207 13.1571 3.28003Z" fill="#0B0165"/>
<rect x="11.728" y="10.9707" width="4.1435" height="5.55605" fill="white"/>
<g clip-path="url(#clip0_41_93)">
<path d="M7.55988 9.77822C7.75957 9.65291 7.88326 9.8827 7.99412 10.0059C8.13766 10.1654 8.29484 10.3119 8.46634 10.441C8.82769 10.7094 9.2423 10.8974 9.68231 10.9923C10.1339 11.0868 10.6629 11.0641 11.128 11.0641L13.6555 11.0638L14.6181 11.0637C14.8828 11.0637 15.1324 11.0574 15.3961 11.0879C16.2506 11.1932 17.0359 11.6112 17.6005 12.2612C17.7343 12.4137 17.8587 12.583 17.9631 12.7572C18.0042 12.8258 18.0339 12.8807 18.0373 12.9607C18.0411 13.0503 18.0394 13.14 18.0394 13.2298L18.0393 13.7189L18.0393 15.2586L18.0394 16.8456L18.0395 17.2412C18.0395 17.3338 18.0521 17.4495 18.0268 17.5388C18.0149 17.5807 17.9754 17.6187 17.9373 17.6375C17.891 17.6604 17.8344 17.6654 17.7855 17.648C17.7032 17.6188 17.4683 17.3203 17.3858 17.2383C16.9587 16.8172 16.4192 16.5282 15.832 16.406C15.4058 16.3163 14.8543 16.3391 14.4122 16.339L11.8688 16.3393L10.9026 16.3393C10.6461 16.3393 10.3767 16.3452 10.1224 16.3135C9.34353 16.2151 8.62064 15.8568 8.07069 15.2966C7.87327 15.0982 7.67378 14.8438 7.5377 14.5976C7.51235 14.5488 7.49192 14.5082 7.49033 14.4518C7.48766 14.357 7.48863 14.2611 7.48871 14.1663L7.48892 13.6663L7.48892 12.0962L7.48888 10.661L7.48869 10.1998C7.48854 10.1073 7.48704 10.0131 7.49092 9.92074C7.49359 9.85743 7.5128 9.82019 7.55988 9.77822ZM17.2979 16.336C17.4076 16.3137 17.4628 16.2416 17.4682 16.1317C17.4746 16.0002 17.471 15.8658 17.4705 15.7342L17.4707 15.0762L17.471 14.1605C17.4708 13.9199 17.4904 13.6192 17.4327 13.3868C17.3809 13.1783 17.2561 13.0115 17.1203 12.8509C16.9042 12.5954 16.6619 12.3772 16.3736 12.2059C15.6158 11.7558 14.9823 11.8187 14.1407 11.8193C13.9864 11.8194 13.8196 11.83 13.6667 11.8174C13.554 11.8082 13.4387 11.743 13.3296 11.711C12.985 11.6097 12.5958 11.6092 12.2487 11.699C12.1824 11.7161 12.1153 11.7377 12.051 11.7613C11.9987 11.7805 11.9468 11.8059 11.8916 11.8148C11.8044 11.8289 11.7053 11.8199 11.6166 11.8197L11.0984 11.8188L10.3519 11.8189C10.2078 11.8189 10.0633 11.8213 9.91976 11.8144C9.41778 11.7905 8.93029 11.5945 8.54215 11.2771C8.46635 11.215 8.39947 11.1376 8.31886 11.0825C8.29993 11.0698 8.24817 11.0686 8.22356 11.072C8.10455 11.0904 8.06517 11.1617 8.05996 11.2755C8.05364 11.4135 8.0563 11.5518 8.05652 11.69L8.05658 12.3958L8.05638 13.2441C8.0564 13.4628 8.04734 13.7742 8.09052 13.9861C8.17162 14.3841 8.64393 14.8418 8.96332 15.0705C9.325 15.3295 9.77026 15.5026 10.209 15.5597C10.3581 15.5791 10.5299 15.581 10.68 15.583C10.8978 15.5846 11.1157 15.585 11.3335 15.5838C11.5085 15.5837 11.6992 15.5806 11.8733 15.5875C11.9409 15.5902 12.1138 15.6677 12.1929 15.6896C12.4897 15.7719 12.8175 15.7941 13.1206 15.7384C13.2236 15.7195 13.3252 15.6935 13.4246 15.6607C13.4806 15.6419 13.5876 15.5928 13.6389 15.5884C13.7331 15.5803 13.8489 15.5832 13.9447 15.5834L14.4894 15.5842L15.1703 15.5839C15.3443 15.5839 15.5298 15.578 15.7026 15.594C16.1644 15.6368 16.6145 15.8228 16.9729 16.1168C17.0541 16.1835 17.188 16.3465 17.2979 16.336Z" fill="url(#paint3_linear_41_93)"/>
<path d="M7.5377 14.5977C7.51235 14.5489 7.49192 14.5083 7.49033 14.4519C7.48766 14.3571 7.48863 14.2612 7.48871 14.1664L7.48892 13.6664L7.48892 12.0962L7.48888 10.6611L7.48869 10.1999C7.48854 10.1074 7.48704 10.0132 7.49092 9.92084C7.49359 9.85753 7.5128 9.82029 7.55988 9.77832L7.57605 9.79293C7.57182 9.81606 7.57311 9.83934 7.57371 9.86275C7.58308 9.8658 7.58879 9.86825 7.5977 9.87309L7.59744 9.88843C7.5681 9.91537 7.55557 9.8817 7.55456 9.94532C7.55281 10.0559 7.56379 10.1695 7.56464 10.2794C7.56596 10.4509 7.56465 10.6189 7.57332 10.7905C7.57251 10.9127 7.54516 11.0301 7.56973 11.151C7.57163 11.1603 7.56366 11.2167 7.56368 11.2318C7.56384 11.3576 7.55558 11.483 7.57128 11.6082C7.57387 11.6288 7.56134 11.6726 7.56414 11.6956C7.56673 11.8565 7.56155 12.0149 7.57144 12.1761C7.57406 12.2188 7.56295 12.284 7.57225 12.3181C7.58685 12.3718 7.54325 12.4137 7.56043 12.4599L7.573 12.4654C7.59219 12.5143 7.55106 12.5854 7.56834 12.6379C7.57891 12.6701 7.57106 12.7154 7.56907 12.7504C7.56547 12.8137 7.56791 12.8795 7.56324 12.943C7.56106 12.9726 7.58233 12.9996 7.5699 13.0298C7.54385 13.1263 7.56555 13.242 7.57146 13.3399C7.57315 13.3677 7.56024 13.4478 7.55985 13.4919L7.55732 14.249C7.55725 14.3208 7.56588 14.3569 7.5759 14.4226C7.58427 14.4776 7.53483 14.4979 7.57398 14.5661L7.57357 14.5798C7.55789 14.5912 7.5554 14.5912 7.5377 14.5977Z" fill="#0B0165" fill-opacity="0.8"/>
<path d="M12.6363 12.0068C13.5719 11.9366 14.3872 12.6382 14.4574 13.5738C14.5276 14.5094 13.826 15.3247 12.8904 15.3949C11.9548 15.4651 11.1394 14.7635 11.0693 13.8279C10.9991 12.8923 11.7007 12.0769 12.6363 12.0068ZM12.6423 13.1399C12.5443 12.9736 12.4394 12.7943 12.3295 12.6361C12.2963 12.5882 12.2307 12.5694 12.1736 12.5788C11.969 12.6125 12.0189 12.8433 12.0118 12.9943C12.0098 13.0377 12.0121 13.0954 12.0149 13.1382C11.8703 13.1359 11.6419 13.1165 11.6389 13.3212C11.6376 13.3718 11.6574 13.4207 11.6934 13.4563C11.7624 13.5242 11.9195 13.517 12.0132 13.5096C12.0117 13.6043 12.0072 13.8004 12.0148 13.8915C11.8691 13.8895 11.635 13.87 11.6389 14.0811C11.6394 14.1312 11.6604 14.179 11.6971 14.2132C11.7638 14.275 11.9249 14.272 12.0132 14.263C12.0121 14.3552 12.0035 14.6219 12.0276 14.7025C12.0358 14.7297 12.0502 14.7547 12.0699 14.7753C12.125 14.8329 12.2259 14.8454 12.2925 14.8017C12.3703 14.7507 12.3861 14.6519 12.3859 14.566C12.3856 14.4725 12.3885 14.3776 12.3854 14.2845C12.3851 14.2777 12.3848 14.2709 12.3844 14.2642C12.5326 14.2653 12.7395 14.259 12.8816 14.2682C12.9575 14.368 13.0136 14.4761 13.0796 14.5823C13.1544 14.7026 13.1989 14.8507 13.3712 14.8244C13.5045 14.7758 13.5189 14.6626 13.5165 14.5385C13.5148 14.4497 13.5204 14.3531 13.5141 14.265C13.6673 14.2661 13.8843 14.2873 13.8894 14.072C13.8941 13.8762 13.6475 13.882 13.5162 13.8945C13.5162 13.7889 13.5216 13.6117 13.5141 13.5117C13.6673 13.5127 13.8845 13.5339 13.8894 13.3186C13.8939 13.1228 13.6478 13.1286 13.5162 13.1411C13.5164 13.0684 13.5152 12.9937 13.5164 12.9201C13.5189 12.7764 13.5231 12.5733 13.3239 12.5764C13.1906 12.5784 13.1424 12.6941 13.143 12.8113C13.1429 12.9205 13.1371 13.0335 13.1445 13.1412C13.0397 13.1296 12.7567 13.1386 12.6423 13.1399Z" fill="#0B0165"/>
<path d="M12.3888 13.4519C12.4053 13.4597 12.6567 13.8653 12.6628 13.8908C12.5718 13.8912 12.477 13.8901 12.3865 13.8957C12.3852 13.7561 12.3825 13.5903 12.3888 13.4519Z" fill="#0B0165"/>
<path d="M13.0758 13.5102C13.0987 13.5114 13.1198 13.5098 13.1427 13.5085C13.1409 13.6588 13.1447 13.8084 13.1392 13.9589C13.1098 13.915 13.0844 13.8763 13.0575 13.8308C12.9935 13.7257 12.931 13.6164 12.8662 13.5126C12.9345 13.5132 13.0071 13.5111 13.0758 13.5102Z" fill="#0B0165"/>
<path d="M8.4309 11.6616C8.4703 11.6732 8.61471 11.7814 8.65935 11.8066C8.87774 11.9335 9.09364 12.0248 9.3361 12.0937C9.66471 12.1871 9.96925 12.1938 10.3084 12.1941L10.8585 12.1941L11.141 12.1941C11.1913 12.1941 11.2774 12.1918 11.3243 12.199C11.3322 12.2213 11.2015 12.3478 11.1782 12.3755C10.6345 13.0201 10.5421 13.974 10.9608 14.7079C10.988 14.7557 11.0149 14.8062 11.0469 14.8508L11.0518 14.8575C11.1373 14.978 11.239 15.1236 11.3623 15.2079C11.1263 15.2168 10.8695 15.2043 10.6318 15.2092C10.5026 15.2119 10.3295 15.203 10.2018 15.1846C9.69239 15.108 9.22114 14.8695 8.85779 14.5042C8.76097 14.4068 8.66456 14.2931 8.57908 14.1852C8.39907 13.958 8.43024 13.6856 8.43034 13.4117L8.43027 12.908L8.4309 11.6616Z" fill="#0B0165" fill-opacity="0.8"/>
<path d="M14.1881 12.1969C14.2686 12.1899 14.3894 12.1935 14.4733 12.1936L14.9321 12.1939C15.067 12.1945 15.1886 12.1978 15.3225 12.2172C15.8316 12.293 16.3026 12.531 16.6655 12.8959C16.7599 12.9916 16.8414 13.0929 16.9288 13.1939C17.1354 13.4327 17.0979 13.728 17.0974 14.0248L17.0971 14.5143L17.0964 15.7539C17.0224 15.6807 16.795 15.548 16.6992 15.5029C16.3739 15.3325 15.9655 15.2301 15.6008 15.2144C15.4285 15.207 15.246 15.2093 15.0726 15.2093L14.1763 15.2094C14.4985 14.9199 14.7321 14.4631 14.802 14.0372C14.889 13.509 14.7676 12.9676 14.4635 12.527C14.4088 12.4483 14.3492 12.3731 14.2852 12.3017C14.2566 12.2698 14.2106 12.2306 14.1881 12.1969Z" fill="#0B0165"/>
<path d="M8.57932 9.748C8.7416 9.74 8.80097 9.84159 8.90462 9.94527C9.08385 10.125 9.33399 10.268 9.59112 10.2936C9.74097 10.3085 9.98605 10.3067 9.93423 10.5455C9.91739 10.6231 9.87007 10.6614 9.79584 10.683C9.59646 10.7156 9.28452 10.6336 9.10098 10.5498C8.88969 10.4533 8.71633 10.3122 8.55525 10.1478C8.47656 10.0674 8.39138 9.97151 8.44813 9.84979C8.47197 9.79865 8.52826 9.76478 8.57932 9.748Z" fill="#0B0165" fill-opacity="0.8"/>
<path d="M15.7557 16.7165C16.2367 16.6849 16.6844 16.9403 16.9951 17.2816C17.0766 17.3712 17.1357 17.4425 17.0699 17.5708C17.0433 17.6228 16.9838 17.6448 16.932 17.6563C16.88 17.66 16.8377 17.6525 16.7955 17.6215C16.6858 17.5406 16.5976 17.417 16.4883 17.3357C16.3001 17.1957 16.0822 17.1072 15.8461 17.1003C15.7843 17.0985 15.7193 17.0907 15.6652 17.0572C15.5759 17.002 15.565 16.8656 15.6246 16.785C15.6609 16.7358 15.6995 16.7252 15.7557 16.7165Z" fill="#0B0165"/>
<path d="M10.2955 10.3132C10.4656 10.3032 10.8846 10.2553 10.8825 10.4851C10.8815 10.6011 10.8241 10.6653 10.716 10.6862C10.6097 10.6938 10.2852 10.7087 10.2025 10.6538C10.1604 10.6258 10.1352 10.5822 10.1275 10.5327C10.1193 10.4796 10.1312 10.4227 10.1642 10.3798C10.2 10.3331 10.2399 10.3202 10.2955 10.3132Z" fill="#0B0165" fill-opacity="0.8"/>
<path d="M14.8169 16.7171C14.9232 16.7063 15.0484 16.7171 15.1564 16.7135C15.2595 16.71 15.3723 16.7399 15.398 16.8561C15.4104 16.9098 15.3997 16.9663 15.3686 17.0118C15.3294 17.068 15.2901 17.0807 15.2281 17.0904C15.0549 17.1016 14.6275 17.1506 14.6456 16.9032C14.654 16.7885 14.7087 16.7315 14.8169 16.7171Z" fill="#0B0165"/>
</g>
<defs>
<linearGradient id="paint0_linear_41_93" x1="8.54958" y1="10.3541" x2="11.9892" y2="44.6953" gradientUnits="userSpaceOnUse">
<stop offset="0.37596" stop-color="#0B0165" stop-opacity="0.8"/>
<stop offset="1" stop-color="#070133" stop-opacity="0.8"/>
</linearGradient>
<linearGradient id="paint1_linear_41_93" x1="4.47765" y1="18.4705" x2="4.25222" y2="18.6827" gradientUnits="userSpaceOnUse">
<stop stop-color="#221F20"/>
<stop offset="1" stop-color="#EDEDFF"/>
</linearGradient>
<linearGradient id="paint2_linear_41_93" x1="12.3838" y1="22.539" x2="12.4528" y2="22.6419" gradientUnits="userSpaceOnUse">
<stop stop-color="#070133"/>
<stop offset="1" stop-color="#EDEDFF"/>
</linearGradient>
<linearGradient id="paint3_linear_41_93" x1="18.0209" y1="13.7008" x2="7.54743" y2="13.6967" gradientUnits="userSpaceOnUse">
<stop stop-color="#0B0165"/>
<stop offset="1" stop-color="#0F0183"/>
</linearGradient>
<clipPath id="clip0_41_93">
<rect width="12.0538" height="12.0538" fill="white" transform="translate(6.73682 7.6748)"/>
</clipPath>
</defs>
</svg>
