<svg width="2230" height="1052" viewBox="0 0 2230 1052" fill="none" xmlns="http://www.w3.org/2000/svg">
<rect width="2230" height="1052" rx="30" fill="#800A29"/>
<g filter="url(#filter0_d_42_583)">
<g clip-path="url(#clip0_42_583)">
<rect x="23" y="29" width="2183" height="993" rx="30" fill="white"/>
<rect width="2183" height="791" transform="translate(23 29)" fill="white"/>
<g clip-path="url(#paint0_diamond_42_583_clip_path)" data-figma-skip-parse="true"><g transform="matrix(0.321559 -0.564426 0.291261 0.165934 475.461 218)"><rect x="0" y="0" width="1071.01" height="1337.11" fill="url(#paint0_diamond_42_583)" opacity="0.3" shape-rendering="crispEdges"/><rect x="0" y="0" width="1071.01" height="1337.11" transform="scale(1 -1)" fill="url(#paint0_diamond_42_583)" opacity="0.3" shape-rendering="crispEdges"/><rect x="0" y="0" width="1071.01" height="1337.11" transform="scale(-1 1)" fill="url(#paint0_diamond_42_583)" opacity="0.3" shape-rendering="crispEdges"/><rect x="0" y="0" width="1071.01" height="1337.11" transform="scale(-1)" fill="url(#paint0_diamond_42_583)" opacity="0.3" shape-rendering="crispEdges"/></g></g><path d="M72.5664 599.395C68.8555 599.004 66.0234 597.344 64.0703 594.414C62.1172 591.484 61.3359 588.262 61.7266 584.746C62.7031 578.691 64.5586 573.125 67.293 568.047C70.0273 562.969 71.9805 559.16 73.1523 556.621C74.5195 554.082 75.8867 551.25 77.2539 548.125L88.3867 522.344L208.797 161.699L338.289 411.895L463.973 161.699L614.266 595H456.941L384.285 371.172L271.785 605.547L153.426 394.609L112.41 522.637C105.965 536.895 101.375 549.004 98.6406 558.965C95.9062 568.926 93.6602 576.641 91.9023 582.109C87.9961 594.414 81.5508 600.176 72.5664 599.395Z" data-figma-gradient-fill="{&#34;type&#34;:&#34;GRADIENT_DIAMOND&#34;,&#34;stops&#34;:[{&#34;color&#34;:{&#34;r&#34;:0.80480778217315674,&#34;g&#34;:0.056374963372945786,&#34;b&#34;:0.0023214665707200766,&#34;a&#34;:1.0},&#34;position&#34;:0.0},{&#34;color&#34;:{&#34;r&#34;:0.043137256056070328,&#34;g&#34;:0.0039215688593685627,&#34;b&#34;:0.39607843756675720,&#34;a&#34;:1.0},&#34;position&#34;:1.0}],&#34;stopsVar&#34;:[{&#34;color&#34;:{&#34;r&#34;:0.80480778217315674,&#34;g&#34;:0.056374963372945786,&#34;b&#34;:0.0023214665707200766,&#34;a&#34;:1.0},&#34;position&#34;:0.0},{&#34;color&#34;:{&#34;r&#34;:0.043137256056070328,&#34;g&#34;:0.0039215688593685627,&#34;b&#34;:0.39607843756675720,&#34;a&#34;:1.0},&#34;position&#34;:1.0}],&#34;transform&#34;:{&#34;m00&#34;:643.1184082031250,&#34;m01&#34;:582.5222167968750,&#34;m02&#34;:-137.35934448242188,&#34;m10&#34;:-1128.8524169921875,&#34;m11&#34;:331.868652343750,&#34;m12&#34;:616.49188232421875},&#34;opacity&#34;:0.30000001192092896,&#34;blendMode&#34;:&#34;NORMAL&#34;,&#34;visible&#34;:true}"/>
<g clip-path="url(#paint1_diamond_42_583_clip_path)" data-figma-skip-parse="true"><g transform="matrix(0.321559 -0.564426 0.291261 0.165934 487.461 239)"><rect x="0" y="0" width="1071.01" height="1337.11" fill="url(#paint1_diamond_42_583)" opacity="1" shape-rendering="crispEdges"/><rect x="0" y="0" width="1071.01" height="1337.11" transform="scale(1 -1)" fill="url(#paint1_diamond_42_583)" opacity="1" shape-rendering="crispEdges"/><rect x="0" y="0" width="1071.01" height="1337.11" transform="scale(-1 1)" fill="url(#paint1_diamond_42_583)" opacity="1" shape-rendering="crispEdges"/><rect x="0" y="0" width="1071.01" height="1337.11" transform="scale(-1)" fill="url(#paint1_diamond_42_583)" opacity="1" shape-rendering="crispEdges"/></g></g><path d="M84.5664 620.395C80.8555 620.004 78.0234 618.344 76.0703 615.414C74.1172 612.484 73.3359 609.262 73.7266 605.746C74.7031 599.691 76.5586 594.125 79.293 589.047C82.0273 583.969 83.9805 580.16 85.1523 577.621C86.5195 575.082 87.8867 572.25 89.2539 569.125L100.387 543.344L220.797 182.699L350.289 432.895L475.973 182.699L626.266 616H468.941L396.285 392.172L283.785 626.547L165.426 415.609L124.41 543.637C117.965 557.895 113.375 570.004 110.641 579.965C107.906 589.926 105.66 597.641 103.902 603.109C99.9961 615.414 93.5508 621.176 84.5664 620.395Z" data-figma-gradient-fill="{&#34;type&#34;:&#34;GRADIENT_DIAMOND&#34;,&#34;stops&#34;:[{&#34;color&#34;:{&#34;r&#34;:0.066666670143604279,&#34;g&#34;:0.0039215688593685627,&#34;b&#34;:0.60000002384185791,&#34;a&#34;:1.0},&#34;position&#34;:0.0},{&#34;color&#34;:{&#34;r&#34;:0.043137256056070328,&#34;g&#34;:0.0039215688593685627,&#34;b&#34;:0.39607843756675720,&#34;a&#34;:1.0},&#34;position&#34;:1.0}],&#34;stopsVar&#34;:[{&#34;color&#34;:{&#34;r&#34;:0.066666670143604279,&#34;g&#34;:0.0039215688593685627,&#34;b&#34;:0.60000002384185791,&#34;a&#34;:1.0},&#34;position&#34;:0.0},{&#34;color&#34;:{&#34;r&#34;:0.043137256056070328,&#34;g&#34;:0.0039215688593685627,&#34;b&#34;:0.39607843756675720,&#34;a&#34;:1.0},&#34;position&#34;:1.0}],&#34;transform&#34;:{&#34;m00&#34;:643.1184082031250,&#34;m01&#34;:582.5222167968750,&#34;m02&#34;:-125.35934448242188,&#34;m10&#34;:-1128.8524169921875,&#34;m11&#34;:331.868652343750,&#34;m12&#34;:637.49188232421875},&#34;opacity&#34;:1.0,&#34;blendMode&#34;:&#34;NORMAL&#34;,&#34;visible&#34;:true}"/>
<path d="M638.485 325.028C643.939 324.709 651.166 324.904 656.75 324.905L689.208 324.912L709.124 324.9C712.902 324.894 717.559 324.644 721.241 325.184C732.574 326.847 741.404 336.98 741.522 348.428C741.555 351.634 741.528 354.86 741.515 358.079L741.513 376.39L741.523 439.683L741.557 510.208L741.556 531.864C741.558 534.864 741.721 540.793 741.431 543.638C740.999 548.315 739.206 552.763 736.273 556.432C732.321 561.333 726.61 564.495 720.358 565.242C716.621 565.619 710.132 565.437 706.147 565.445L677.641 565.401L652.105 565.434C647.344 565.436 641.73 565.713 637.087 565.049C629.607 563.978 622.467 558.402 619.315 551.591C616.503 545.514 616.921 538.76 616.916 532.272L616.912 514.649L616.911 455.918L616.921 383.296L616.927 359.988C616.942 355.856 616.868 351.745 617.135 347.621C617.907 335.683 626.588 326.499 638.485 325.028ZM633.908 354.733L633.762 354.426C634.901 353.08 635.829 352.674 636.232 352.205C635.14 352.192 633.611 354.753 632.719 355.057C631.461 356.365 630.447 359.718 631.237 361.38L631.273 361.009C631.375 361.398 631.434 361.629 631.489 362.027C631.343 364.871 631.417 368.121 631.416 370.997L631.417 385.793L631.416 430.754L631.426 445.477C631.428 447.345 631.549 450.879 631.411 452.6C631.508 455.726 631.38 458.189 633.076 461.01C636.099 466.037 639.98 466.441 645.344 466.431L693.789 466.513L708.76 466.516C711.192 466.516 715.548 466.598 717.824 466.322C723.876 465.648 727.253 461.229 727.594 455.385C727.71 453.126 727.639 450.432 727.638 448.129L727.64 435.38L727.637 396.132L727.693 374.024C727.722 369.623 727.949 363.201 727.378 358.998C725.892 354.312 723.388 352.112 718.736 350.915C716.188 350.517 711.566 350.628 708.861 350.628L693.078 350.641C676.367 350.64 658.851 350.369 642.202 350.708C637.926 351.405 637.015 351.751 633.908 354.733ZM677.186 488.277C679.621 488.556 681.55 488.429 683.928 487.981C687.356 487.078 691.606 484.887 687.03 481.588C684.096 480.181 681.046 479.839 677.838 480.04C675.824 480.358 672.191 481.079 670.971 482.705C668.076 486.562 675.126 488.003 677.186 488.277ZM671.572 514.397C667.958 518.014 672.886 519.586 675.73 520.495C678.674 521.061 679.86 520.992 682.815 520.591C684.858 520.175 690.845 518.404 688.456 515.343C686.846 513.28 683.447 512.777 681.045 512.459C680.721 512.497 679.776 512.437 679.402 512.423C676.278 512.591 674.33 512.752 671.572 514.397ZM644.686 538.352C647.231 538.187 655.159 537.008 653.261 533.071C651.598 531.287 650.366 531.002 648.09 530.426C645.311 529.887 644.08 529.841 641.262 530.209C633.362 531.755 632.183 535.802 640.715 538.024C642.194 538.275 643.188 538.299 644.686 538.352ZM683.707 530.428C681.693 529.983 679.842 529.935 677.798 530.047C675.202 530.474 666.158 532.403 672.399 536.685C673.366 537.348 676.205 538.016 677.473 538.184C681.197 538.665 685.225 538.046 688.256 535.714C690.748 532.551 685.985 530.989 683.707 530.428ZM710.67 488.126C711.023 488.111 712.623 488.272 713.133 488.292C715.089 488.37 716.618 488.24 718.562 487.949C722.07 486.969 726.156 484.465 721.213 481.516C719.903 480.974 719.31 480.798 717.942 480.448C715.309 479.925 712.597 479.952 709.975 480.528C708.187 481.038 704.104 482.303 705.016 484.837C705.767 486.921 708.911 487.526 710.67 488.126ZM634.61 501.137C634.862 501.712 635.02 502.209 635.456 502.651L635.456 502.764C636.64 503.822 637.135 504.059 638.614 504.647C641 505.282 642.544 505.46 644.948 505.484C647.978 505.29 651.4 504.553 653.509 502.219C654.821 497.636 645.664 497.124 642.876 497.12C639.579 497.587 636.338 497.936 634.61 501.137ZM679.414 505.527C680.113 505.48 680.82 505.418 681.519 505.425C683.868 505.13 692.462 503.15 687.784 499.233C685.074 496.963 679.981 496.98 676.507 497.327C673.562 497.9 671.63 498.404 670.047 501.118C670.846 502.893 671.635 503.696 673.506 504.399C674.077 504.609 674.652 504.81 675.229 505.002C676.907 505.325 677.677 505.427 679.414 505.527ZM642.43 488.389C644.26 488.435 645.745 488.461 647.567 488.17C652.741 486.984 656.948 483.745 649.714 480.817C648.563 480.531 647.817 480.334 646.625 480.213L644.606 480.087C642.884 480.13 641.558 480.174 639.854 480.621C634.504 482.027 632.346 485.059 638.642 487.718C639.729 487.99 641.314 488.275 642.43 488.389ZM635.095 517.461C637.011 519.661 639.545 520.343 642.384 520.738C644.354 520.905 645.394 520.781 647.326 520.557C655.028 519.203 656.074 514.542 647.92 512.771C646.172 512.391 644.467 512.398 642.686 512.511C640.37 512.794 633.489 513.824 635.095 517.461ZM688.739 558.642C690.208 558.614 693.098 558.883 693.479 556.937C693.035 555.278 690.686 555.439 689.336 555.428C687.647 555.548 684.015 555.428 682.187 555.425L669.038 555.424C667.734 555.452 665.994 555.465 665.626 557.103C666.013 558.998 669.232 558.616 670.753 558.613L688.739 558.642ZM721.594 519.116C725.358 516.289 722.811 514.139 719.518 513.231C715.185 512.036 710.096 512.253 706.136 514.425C702.607 517.903 707.322 519.614 710.15 520.475C713.538 521.055 714.556 521 717.943 520.508C719.418 520.068 720.169 519.784 721.594 519.116ZM712.885 497.146C710.4 497.487 706.926 497.935 705.239 500.089C704.069 501.584 705.617 503.071 706.872 503.862C707.085 503.995 707.299 504.126 707.515 504.254C710.836 505.268 711.827 505.507 715.344 505.475C718.172 505.27 720.356 504.61 722.714 503.028C724.998 500.262 721.905 498.749 719.667 497.875C717.02 497.203 715.555 497.099 712.885 497.146ZM653.79 337.294C654.703 338.874 653.936 338.472 654.03 339.551C662.504 339.162 672.32 339.475 680.887 339.462L696.254 339.422C698.82 339.421 701.997 339.344 704.518 339.484L704.665 339.287C704.307 338.585 704.327 338.303 704.707 337.618C704.176 337.452 697.856 337.613 696.781 337.614L672.175 337.611C669.688 337.614 655.258 337.827 653.79 337.294ZM709.567 530.553C708.198 531.004 705.9 531.747 705.278 533.114C703.882 536.182 708.644 537.493 710.508 538.057C714.229 538.673 716.965 538.482 720.511 537.264C725.598 534.76 723.47 531.759 719.145 530.643C715.948 529.619 712.773 529.968 709.567 530.553Z" fill="#0B0165"/>
<path d="M706.768 513.164C711.083 511.279 716.069 511.195 720.522 512.707C722.219 513.283 725.242 515.357 724.286 517.559C723.971 518.284 722.967 519.275 722.23 519.594C721.507 520.342 718.859 521.404 717.942 520.508C719.417 520.068 720.168 519.784 721.592 519.116C725.356 516.289 722.81 514.139 719.516 513.231C715.183 512.036 710.094 512.253 706.135 514.425C706.148 514.079 706.568 513.494 706.768 513.164Z" fill="#0B0165"/>
<path d="M721.594 519.116C722.225 519.068 722.376 519.069 722.845 518.638C722.585 518.995 722.483 519.143 722.17 519.45L722.232 519.594C721.509 520.342 718.86 521.404 717.943 520.507C719.418 520.068 720.169 519.784 721.594 519.116Z" fill="#0B0165"/>
<path d="M639.641 496.849C643.744 495.738 652.375 495.969 654.193 500.611C655.27 503.363 650.655 505.561 648.58 505.751C646.671 505.926 643.61 506.217 641.723 506.079C642.741 505.341 643.529 505.669 644.947 505.483C647.976 505.29 651.398 504.553 653.507 502.219C654.819 497.635 645.663 497.124 642.874 497.12C641.482 496.654 641.108 496.813 639.641 496.849Z" fill="#0B0165"/>
<path d="M707.63 480.5C708.258 480.68 708.629 480.447 709.226 480.197C709.588 480.247 709.674 480.333 709.975 480.528C708.187 481.038 704.103 482.303 705.016 484.837C705.767 486.921 708.91 487.526 710.669 488.126C711.022 488.111 712.622 488.272 713.133 488.292C715.089 488.37 716.618 488.24 718.561 487.949C718.777 488.046 718.955 488.124 719.165 488.236L719.005 488.629C716.675 489.285 711.995 489.479 709.682 488.723C704.018 487.658 701.41 482.479 707.63 480.5Z" fill="#0B0165"/>
<path d="M710.669 488.126C711.023 488.111 712.623 488.272 713.133 488.292C715.089 488.37 716.618 488.24 718.561 487.949C718.777 488.046 718.956 488.124 719.165 488.236L719.005 488.629C716.675 489.285 711.995 489.479 709.682 488.723C710.168 488.576 712.151 488.81 713.042 488.79C712.823 488.56 711.238 488.44 710.803 488.383L710.669 488.126Z" fill="#0B0165"/>
<path d="M675.059 496.77C679.374 495.995 686.18 495.886 689.117 499.584C692.178 503.438 684.896 506.241 681.91 505.761L681.518 505.425C683.867 505.13 692.461 503.15 687.783 499.233C685.073 496.963 679.98 496.98 676.506 497.327C675.926 497.165 675.601 497.01 675.059 496.77Z" fill="#0B0165"/>
<path d="M640.318 511.975C643.845 511.275 649.192 511.577 652.24 513.577C657.221 516.844 652.88 520.036 649.039 520.976C648.298 521.157 647.901 520.992 647.325 520.557C655.028 519.203 656.073 514.542 647.92 512.771C646.171 512.391 644.467 512.398 642.686 512.511C641.781 511.796 641.504 511.941 640.318 511.975Z" fill="#0B0165"/>
<path d="M645.344 466.431C644.553 466.572 641.521 466.889 640.734 466.896C635.689 466.94 630.742 461.344 630.661 456.426C630.643 455.372 631.266 454.689 631.004 453.564C630.901 453.118 631.145 452.834 631.411 452.6C631.508 455.726 631.379 458.189 633.076 461.01C636.099 466.037 639.98 466.441 645.344 466.431Z" fill="url(#paint2_linear_42_583)"/>
<path d="M637.88 488.179C637.29 487.977 636.722 487.713 636.186 487.392C634.472 486.385 633.126 484.59 634.595 482.648C636.288 480.408 639.095 479.874 641.717 479.476C642.819 479.6 643.534 479.808 644.605 480.087C642.882 480.13 641.556 480.174 639.853 480.621C634.502 482.027 632.344 485.059 638.64 487.718C639.728 487.99 641.312 488.275 642.428 488.389C642.367 488.691 642.322 488.682 642.088 488.901C640.734 489.297 639.138 488.69 637.88 488.179Z" fill="#0B0165"/>
<path d="M637.881 488.179L638.031 488.104L638.045 488.004L636.959 487.416C637.575 487.651 637.984 487.898 638.641 487.718C639.728 487.99 641.312 488.275 642.429 488.389C642.367 488.691 642.322 488.682 642.088 488.901C640.734 489.297 639.138 488.69 637.881 488.179Z" fill="#0B0165"/>
<path d="M669.328 534.019C670.389 531.042 674.99 528.571 677.798 530.047C675.202 530.474 666.157 532.403 672.398 536.684C673.366 537.348 676.205 538.016 677.473 538.183C676.687 538.356 676.63 538.706 676.099 538.841C672.936 538.17 670.202 537.454 669.328 534.019Z" fill="#0B0165"/>
<path d="M675.469 488.879C662.822 485.911 673.347 477.722 677.837 480.04C675.824 480.358 672.191 481.079 670.971 482.705C668.076 486.562 675.125 488.003 677.186 488.277L677.88 488.694L677.83 488.795C677.262 488.968 676.206 488.824 675.469 488.879Z" fill="#0B0165"/>
<path d="M717.822 466.322C723.874 465.648 727.251 461.229 727.593 455.385C727.978 456.956 727.861 457.236 727.453 458.83L727.657 458.926C727.97 458.609 728.105 457.085 728.157 456.577C729.002 461.234 722.733 467.593 718.242 466.888C717.955 466.648 717.975 466.665 717.822 466.322Z" fill="#0B0165"/>
<path d="M653.758 532.59C656.556 535.973 650.112 538.731 647.517 538.771C645.866 539.272 642.375 539.254 640.643 538.787C640.69 538.614 640.701 538.222 640.714 538.024C642.193 538.275 643.187 538.299 644.686 538.352C647.23 538.187 655.158 537.008 653.26 533.071L653.758 532.59Z" fill="#0B0165"/>
<path d="M640.714 538.024C642.193 538.275 643.187 538.299 644.686 538.352C645.254 538.437 645.357 538.487 645.89 538.334L646.137 538.547C645.752 538.587 645.195 538.578 644.939 538.825C645.717 538.748 646.493 538.649 647.265 538.528L647.517 538.771C645.866 539.272 642.375 539.254 640.643 538.787C640.69 538.614 640.701 538.222 640.714 538.024Z" fill="#0B0165"/>
<path d="M681.043 512.459C684.025 511.597 688.507 512.725 689.668 515.994C690.581 518.567 686.644 520.612 684.64 520.829C683.874 520.965 683.523 520.766 682.813 520.591C684.856 520.175 690.844 518.404 688.454 515.343C686.845 513.28 683.445 512.777 681.043 512.459Z" fill="#0B0165"/>
<path d="M640.642 538.787C639.453 538.638 638.294 538.309 637.205 537.809C635.451 537.007 633.119 535.164 634.339 532.94C635.463 530.889 637.777 530.257 639.879 529.651L641.261 530.209C633.36 531.755 632.182 535.802 640.713 538.024C640.701 538.222 640.689 538.614 640.642 538.787Z" fill="#0B0165"/>
<path d="M674.693 505.724C667.197 503.016 667.851 499.161 675.06 496.77C675.602 497.01 675.927 497.166 676.507 497.327C673.563 497.9 671.63 498.404 670.047 501.118C670.846 502.893 671.635 503.696 673.506 504.399C674.077 504.609 674.652 504.81 675.229 505.002L674.693 505.724Z" fill="#0B0165"/>
<path d="M706.997 530.637C707.615 530.592 709.071 530.396 709.567 530.553C708.198 531.004 705.9 531.747 705.278 533.115C703.882 536.182 708.643 537.494 710.508 538.057C710.113 538.604 710.325 538.424 709.597 538.684C705.025 537.257 700.947 533.979 706.997 530.637Z" fill="#0B0165"/>
<path d="M649.713 480.817C650.416 480.576 650.861 480.466 651.547 480.821C656.571 483.423 654.067 487.295 649.789 488.462C649.166 488.632 648.583 488.752 647.938 488.563L647.566 488.17C652.74 486.984 656.947 483.745 649.713 480.817Z" fill="#0B0165"/>
<path d="M677.472 538.183C681.195 538.665 685.223 538.046 688.254 535.714L688.488 536.637C685.492 538.923 679.703 539.757 676.098 538.841C676.628 538.706 676.685 538.356 677.472 538.183Z" fill="#221F20"/>
<path d="M703.951 500.646C705.317 498.228 707.059 497.545 709.643 496.8C710.844 497.011 711.962 496.837 712.884 497.146C710.4 497.487 706.926 497.935 705.239 500.089C704.068 501.584 705.617 503.071 706.871 503.862C707.084 503.995 707.298 504.126 707.515 504.253C706.993 504.257 706.898 504.257 706.392 504.152L706.116 504.258C705.355 504.021 704.548 502.873 704.107 502.259L703.951 500.646Z" fill="#0B0165"/>
<path d="M718.734 350.915C721.752 348.85 729.508 356.785 727.376 358.998C725.89 354.312 723.386 352.112 718.734 350.915Z" fill="#0B0165"/>
<path d="M640.319 511.975C641.505 511.941 641.781 511.796 642.686 512.511C640.37 512.794 633.489 513.824 635.095 517.461C635.015 517.884 634.914 518.316 634.906 518.744C631.637 515.072 637.42 512.495 640.319 511.975Z" fill="#0B0165"/>
<path d="M639.642 496.849C641.11 496.813 641.483 496.654 642.875 497.12C639.578 497.587 636.337 497.936 634.61 501.137C634.861 501.712 635.019 502.208 635.455 502.651L635.455 502.763L634.745 503.186C632.104 499.789 636.922 497.415 639.642 496.849Z" fill="#0B0165"/>
<path d="M721.946 481.069C726.924 484.362 723.151 487.823 719.004 488.629L719.164 488.236C718.955 488.124 718.776 488.045 718.561 487.949C722.069 486.969 726.155 484.464 721.212 481.516L721.946 481.069Z" fill="#0B0165"/>
<path d="M719.459 529.812C722.218 530.952 726.926 533.534 722.646 536.944C722.281 537.235 721.552 537.622 721.107 537.779C721.307 537.555 721.518 537.36 721.706 537.137C721.494 537.163 721.074 537.341 720.852 537.425L720.51 537.264C725.597 534.76 723.469 531.759 719.145 530.643L719.459 529.812Z" fill="#0B0165"/>
<path d="M706.769 513.165C706.568 513.494 706.148 514.079 706.136 514.425C702.607 517.903 707.321 519.614 710.149 520.475C707.377 521.869 700.173 516.868 706.769 513.165Z" fill="#0B0165"/>
<path d="M706.996 530.637C710.118 528.968 716.067 529.15 719.459 529.812L719.144 530.643C715.947 529.619 712.772 529.968 709.566 530.553C709.07 530.396 707.614 530.592 706.996 530.637Z" fill="#0B0165"/>
<path d="M670.036 514.937C670.166 514.853 670.297 514.77 670.428 514.688C671.116 514.262 670.979 514.259 671.57 514.397C667.957 518.014 672.884 519.586 675.729 520.495C673.381 521.82 667.332 517.74 670.036 514.937Z" fill="#0B0165"/>
<path d="M687.03 481.588C688.706 481.253 689.384 483.036 689.947 484.312C688.84 487.259 687.269 487.813 684.377 488.673C684.199 488.51 684.057 488.206 683.928 487.981C687.356 487.078 691.605 484.887 687.03 481.588Z" fill="#0B0165"/>
<path d="M720.51 537.264L720.852 537.425C721.074 537.342 721.494 537.163 721.706 537.137C721.518 537.36 721.306 537.555 721.107 537.779C718.862 539.181 712.255 539.086 709.596 538.684C710.324 538.424 710.112 538.604 710.507 538.057C714.228 538.673 716.964 538.482 720.51 537.264Z" fill="#0B0165"/>
<path d="M709.643 496.8C713.299 496.135 717.297 495.991 720.783 497.485C720.389 497.607 720.052 497.731 719.665 497.875C717.019 497.203 715.554 497.099 712.884 497.146C711.961 496.837 710.844 497.011 709.643 496.8Z" fill="#0B0165"/>
<path d="M670.751 558.613C669.226 559.114 669.498 559.536 667.688 559.314C661.081 558.506 667.835 552.589 669.036 555.424C667.732 555.452 665.992 555.465 665.624 557.103C666.012 558.998 669.23 558.616 670.751 558.613Z" fill="#0B0165"/>
<path d="M707.629 480.5C710.627 478.896 715.733 479.191 719.05 479.897L717.941 480.448C715.308 479.925 712.596 479.952 709.974 480.528C709.673 480.333 709.587 480.246 709.225 480.197C708.628 480.447 708.257 480.68 707.629 480.5Z" fill="#0B0165"/>
<path d="M715.343 505.475C718.171 505.27 720.355 504.61 722.713 503.028C723.015 503.048 723.293 503.038 723.57 503.134C721.971 505.163 717.131 506.537 714.703 506.168C714.615 505.914 714.606 505.929 714.632 505.663L715.343 505.475Z" fill="url(#paint3_linear_42_583)"/>
<path d="M632.719 355.057C634.135 352.489 639.222 349.197 642.202 350.708C637.926 351.405 637.014 351.751 633.908 354.733L633.761 354.426C634.9 353.08 635.829 352.674 636.232 352.205C635.14 352.192 633.611 354.753 632.719 355.057Z" fill="#0B0165"/>
<path d="M683.705 530.428C684.661 530.168 684.851 530.078 685.85 530.33C688.612 531.027 691.472 534.11 688.489 536.637L688.254 535.714C690.746 532.551 685.984 530.989 683.705 530.428Z" fill="#0B0165"/>
<path d="M689.336 555.428C690.277 554.803 692.199 554.562 693.027 555.239C695.664 557.394 693.294 560.212 690.406 558.833C690.047 558.662 689.146 558.65 688.738 558.642C690.208 558.614 693.097 558.882 693.478 556.937C693.035 555.277 690.685 555.439 689.336 555.428Z" fill="#0B0165"/>
<path d="M670.037 514.937C671.762 512.618 676.804 510.92 679.402 512.423C676.278 512.591 674.33 512.753 671.572 514.397C670.981 514.26 671.117 514.262 670.43 514.688C670.298 514.77 670.167 514.853 670.037 514.937Z" fill="#0B0165"/>
<path d="M632.718 355.057C633.61 354.753 635.139 352.192 636.231 352.205C635.828 352.674 634.899 353.079 633.76 354.426L633.907 354.733C631.961 357.563 631.696 358.627 631.488 362.027C631.433 361.629 631.373 361.398 631.272 361.009L631.236 361.38C630.446 359.718 631.46 356.364 632.718 355.057Z" fill="#0B0165"/>
<path d="M635.094 517.461C637.01 519.661 639.543 520.343 642.382 520.738C641.813 520.771 641.226 520.978 640.766 520.997C638.595 521.084 636.539 520.128 634.904 518.744C634.912 518.316 635.013 517.884 635.094 517.461Z" fill="#0B0165"/>
<path d="M719.666 497.875C720.052 497.731 720.39 497.607 720.784 497.485C722.447 498.209 723.185 498.764 724.208 500.28C724.252 500.803 724.324 501.44 724.32 501.955C724.156 502.243 723.792 502.97 723.571 503.134C723.294 503.038 723.015 503.048 722.713 503.028C724.997 500.262 721.904 498.749 719.666 497.875Z" fill="#0B0165"/>
<path d="M639.881 529.651C642.015 529.19 647.333 529.358 649.53 529.883C648.723 529.962 648.723 529.974 648.09 530.426C645.311 529.887 644.081 529.841 641.262 530.209L639.881 529.651Z" fill="#0B0165"/>
<path d="M683.927 487.981C684.056 488.205 684.198 488.51 684.376 488.673C682.488 489.134 677.189 489.407 675.469 488.879C676.205 488.824 677.261 488.968 677.83 488.795L677.879 488.694L677.185 488.277C679.62 488.556 681.549 488.429 683.927 487.981Z" fill="#0B0165"/>
<path d="M706.115 504.258L706.391 504.152C706.897 504.257 706.992 504.257 707.514 504.254C710.835 505.268 711.826 505.507 715.342 505.475L714.632 505.663C713.287 505.532 713.176 505.665 711.871 505.837C709.953 506.09 707.635 505.471 706.115 504.258Z" fill="#0B0165"/>
<path d="M649.529 529.883C651.388 530.638 652.515 530.967 653.758 532.59L653.26 533.071C651.598 531.287 650.366 531.002 648.09 530.426C648.722 529.974 648.723 529.962 649.529 529.883Z" fill="#0B0165"/>
<path d="M637.047 504.809C637.733 504.288 637.635 505.022 638.612 504.647C640.998 505.282 642.542 505.46 644.947 505.484C643.529 505.669 642.741 505.341 641.724 506.079C640.182 505.961 638.395 505.581 637.047 504.809Z" fill="#0B0165"/>
<path d="M719.051 479.897C720.143 480.176 721.006 480.414 721.946 481.069L721.212 481.516C719.902 480.974 719.309 480.798 717.941 480.448L719.051 479.897Z" fill="#0B0165"/>
<path d="M641.719 479.476C642.851 479.22 646.292 479.139 647.034 480.06L646.624 480.212L644.606 480.087C643.535 479.808 642.82 479.6 641.719 479.476Z" fill="#0B0165"/>
<path d="M634.744 503.187L635.454 502.764C636.639 503.822 637.134 504.059 638.613 504.647C637.636 505.022 637.733 504.288 637.047 504.809C636.061 504.405 635.491 503.915 634.744 503.187Z" fill="#0B0165"/>
<path d="M675.228 505.002C676.905 505.325 677.676 505.427 679.413 505.528C677.62 505.989 676.483 506.084 674.691 505.724L675.228 505.002Z" fill="#0B0165"/>
<path d="M727.797 286.295C727.8 283.744 729.933 281.642 732.479 281.807C733.158 281.85 733.831 281.905 734.493 281.975C755.232 284.163 773.362 299.832 778.229 320.244C778.856 322.65 779.461 326.375 779.727 329.64C779.914 331.934 778.041 333.756 775.74 333.764C774.24 333.769 772.738 333.763 771.293 333.72C771.161 333.716 771.061 333.6 771.076 333.469C771.077 333.458 771.078 333.447 771.077 333.436C770.706 322.501 766.59 312.309 759.096 304.328C751.647 296.396 742.468 292.002 732.006 290.753C729.674 290.475 727.794 288.643 727.797 286.295Z" fill="#800A29"/>
<path d="M728.18 299.456C728.18 299.387 728.236 299.331 728.305 299.331C736.815 299.46 744.58 302.222 750.581 308.438C755.266 313.206 758.222 319.35 759.063 325.901C759.376 328.344 757.323 330.32 754.859 330.317C752.435 330.315 750.483 328.385 749.974 326.015C748.062 317.101 741.363 310.433 732.438 308.57C730.094 308.08 728.185 306.142 728.184 303.748C728.183 302.312 728.177 300.876 728.18 299.456Z" fill="#800A29"/>
<rect x="713" y="381" width="44" height="59" fill="white"/>
<path d="M667.743 369.337C669.863 368.006 671.177 370.446 672.354 371.754C673.878 373.448 675.547 375.004 677.368 376.375C681.206 379.225 685.608 381.221 690.281 382.229C695.077 383.232 700.694 382.991 705.632 382.992L732.472 382.989L742.695 382.987C745.505 382.988 748.155 382.92 750.956 383.245C760.03 384.363 768.369 388.801 774.365 395.703C775.785 397.323 777.107 399.12 778.215 400.97C778.652 401.699 778.967 402.282 779.003 403.131C779.044 404.083 779.026 405.035 779.025 405.989L779.025 411.183L779.024 427.533L779.026 444.385L779.026 448.587C779.026 449.57 779.16 450.799 778.891 451.746C778.765 452.192 778.346 452.595 777.941 452.795C777.45 453.038 776.848 453.091 776.329 452.906C775.455 452.596 772.961 449.427 772.085 448.556C767.55 444.084 761.82 441.015 755.584 439.717C751.059 438.765 745.203 439.007 740.508 439.006L713.499 439.009L703.24 439.009C700.515 439.009 697.654 439.071 694.954 438.736C686.683 437.691 679.007 433.886 673.167 427.936C671.071 425.83 668.952 423.128 667.507 420.514C667.238 419.996 667.021 419.564 667.004 418.965C666.976 417.959 666.986 416.941 666.987 415.934L666.989 410.624L666.989 393.951L666.989 378.711L666.987 373.813C666.985 372.831 666.969 371.831 667.01 370.85C667.039 370.178 667.243 369.782 667.743 369.337ZM771.151 438.974C772.317 438.738 772.903 437.972 772.96 436.804C773.028 435.409 772.989 433.981 772.984 432.583L772.986 425.596L772.989 415.872C772.988 413.317 773.196 410.124 772.582 407.656C772.032 405.442 770.707 403.671 769.265 401.966C766.97 399.252 764.398 396.936 761.336 395.117C753.289 390.337 746.562 391.004 737.625 391.011C735.987 391.012 734.215 391.124 732.592 390.991C731.395 390.893 730.17 390.201 729.011 389.861C725.352 388.786 721.219 388.78 717.533 389.733C716.829 389.915 716.117 390.145 715.434 390.395C714.879 390.599 714.328 390.869 713.741 390.964C712.816 391.113 711.763 391.017 710.821 391.015L705.319 391.006L697.391 391.007C695.862 391.007 694.326 391.032 692.802 390.959C687.472 390.705 682.295 388.624 678.174 385.253C677.369 384.594 676.658 383.772 675.802 383.187C675.601 383.052 675.052 383.04 674.79 383.076C673.527 383.271 673.108 384.028 673.053 385.236C672.986 386.702 673.014 388.17 673.017 389.638L673.017 397.133L673.015 406.141C673.015 408.464 672.919 411.771 673.378 414.02C674.239 418.247 679.254 423.107 682.646 425.536C686.487 428.286 691.215 430.125 695.873 430.73C697.457 430.936 699.282 430.957 700.876 430.977C703.189 430.995 705.502 430.999 707.815 430.987C709.673 430.985 711.698 430.952 713.547 431.026C714.265 431.055 716.101 431.877 716.941 432.11C720.092 432.984 723.574 433.22 726.793 432.628C727.886 432.427 728.965 432.151 730.021 431.803C730.615 431.604 731.751 431.082 732.296 431.035C733.297 430.949 734.526 430.98 735.544 430.982L741.328 430.99L748.558 430.988C750.406 430.988 752.376 430.924 754.21 431.095C759.114 431.549 763.894 433.525 767.7 436.647C768.562 437.354 769.984 439.085 771.151 438.974Z" fill="url(#paint4_linear_42_583)"/>
<path d="M667.507 420.514C667.238 419.996 667.021 419.564 667.004 418.965C666.976 417.959 666.986 416.941 666.987 415.934L666.989 410.624L666.989 393.951L666.989 378.711L666.987 373.813C666.985 372.831 666.969 371.831 667.01 370.85C667.039 370.178 667.243 369.782 667.743 369.337L667.914 369.492C667.87 369.737 667.883 369.985 667.89 370.233C667.989 370.266 668.05 370.292 668.144 370.343L668.142 370.506C667.83 370.792 667.697 370.434 667.686 371.11C667.668 372.284 667.784 373.49 667.793 374.658C667.807 376.479 667.793 378.263 667.886 380.085C667.877 381.382 667.586 382.63 667.847 383.913C667.868 384.012 667.783 384.61 667.783 384.771C667.785 386.107 667.697 387.438 667.864 388.768C667.891 388.987 667.758 389.453 667.788 389.696C667.816 391.405 667.76 393.087 667.866 394.799C667.893 395.252 667.775 395.944 667.874 396.307C668.029 396.877 667.566 397.322 667.749 397.813L667.882 397.871C668.086 398.39 667.649 399.145 667.833 399.703C667.945 400.044 667.861 400.526 667.84 400.897C667.802 401.569 667.828 402.268 667.778 402.942C667.755 403.257 667.981 403.544 667.849 403.865C667.572 404.889 667.803 406.118 667.866 407.157C667.884 407.453 667.747 408.303 667.742 408.771L667.716 416.811C667.715 417.574 667.806 417.956 667.913 418.655C668.002 419.239 667.477 419.454 667.892 420.178L667.888 420.324C667.722 420.444 667.695 420.445 667.507 420.514Z" fill="#CD0E01"/>
<path d="M721.647 393.001C731.582 392.256 740.24 399.706 740.985 409.642C741.73 419.577 734.28 428.235 724.345 428.98C714.409 429.725 705.751 422.275 705.006 412.339C704.261 402.404 711.712 393.746 721.647 393.001ZM721.71 405.033C720.669 403.268 719.556 401.364 718.389 399.684C718.036 399.175 717.339 398.976 716.733 399.076C714.56 399.434 715.09 401.884 715.015 403.488C714.994 403.948 715.018 404.561 715.048 405.015C713.512 404.991 711.087 404.785 711.055 406.959C711.042 407.496 711.251 408.015 711.634 408.393C712.367 409.114 714.034 409.038 715.03 408.959C715.013 409.965 714.966 412.048 715.046 413.015C713.499 412.994 711.014 412.787 711.055 415.028C711.06 415.561 711.284 416.068 711.673 416.431C712.381 417.087 714.092 417.055 715.03 416.96C715.018 417.939 714.927 420.771 715.183 421.627C715.269 421.916 715.423 422.181 715.632 422.4C716.217 423.012 717.289 423.144 717.995 422.681C718.821 422.139 718.99 421.09 718.987 420.177C718.984 419.185 719.015 418.177 718.982 417.188C718.979 417.116 718.976 417.044 718.972 416.972C720.546 416.984 722.743 416.918 724.252 417.015C725.057 418.075 725.653 419.223 726.354 420.35C727.148 421.628 727.621 423.2 729.451 422.921C730.866 422.405 731.019 421.203 730.993 419.886C730.975 418.943 731.035 417.916 730.968 416.981C732.595 416.993 734.899 417.218 734.954 414.931C735.004 412.852 732.385 412.914 730.99 413.047C730.99 411.926 731.048 410.043 730.968 408.982C732.595 408.993 734.902 409.217 734.954 406.931C735.001 404.852 732.388 404.914 730.99 405.046C730.992 404.275 730.979 403.482 730.993 402.7C731.019 401.174 731.064 399.017 728.948 399.049C727.533 399.071 727.021 400.3 727.028 401.544C727.027 402.703 726.964 403.904 727.043 405.048C725.93 404.924 722.925 405.02 721.71 405.033Z" fill="#800A29"/>
<path d="M719.017 408.348C719.192 408.43 721.863 412.737 721.927 413.008C720.961 413.012 719.954 413 718.993 413.06C718.979 411.578 718.95 409.818 719.017 408.348Z" fill="#800A29"/>
<path d="M726.311 408.967C726.555 408.98 726.779 408.963 727.022 408.949C727.003 410.545 727.044 412.134 726.984 413.732C726.672 413.266 726.403 412.854 726.117 412.372C725.438 411.255 724.774 410.094 724.086 408.992C724.811 408.999 725.582 408.977 726.311 408.967Z" fill="#800A29"/>
<path d="M676.991 389.335C677.41 389.458 678.943 390.607 679.417 390.875C681.736 392.222 684.029 393.191 686.604 393.923C690.093 394.915 693.327 394.986 696.928 394.989L702.77 394.99L705.77 394.99C706.304 394.989 707.218 394.965 707.716 395.041C707.801 395.279 706.413 396.622 706.165 396.915C700.392 403.761 699.41 413.89 703.856 421.684C704.146 422.191 704.431 422.727 704.771 423.201L704.823 423.272C705.731 424.552 706.811 426.098 708.12 426.994C705.614 427.088 702.887 426.955 700.363 427.007C698.991 427.036 697.153 426.941 695.797 426.746C690.387 425.933 685.383 423.399 681.525 419.521C680.496 418.486 679.473 417.279 678.565 416.133C676.653 413.721 676.984 410.828 676.985 407.92L676.985 402.57L676.991 389.335Z" fill="#CD0E01"/>
<path d="M738.127 395.02C738.982 394.946 740.265 394.985 741.156 394.985L746.028 394.988C747.46 394.995 748.752 395.03 750.173 395.236C755.579 396.04 760.581 398.568 764.436 402.443C765.438 403.459 766.303 404.535 767.231 405.607C769.425 408.143 769.027 411.279 769.022 414.431L769.019 419.629L769.01 432.792C768.225 432.015 765.81 430.606 764.793 430.127C761.338 428.317 757.002 427.229 753.129 427.063C751.299 426.985 749.361 427.009 747.52 427.009L738.002 427.01C741.423 423.936 743.904 419.085 744.647 414.563C745.57 408.953 744.282 403.204 741.052 398.526C740.471 397.69 739.838 396.891 739.158 396.133C738.855 395.794 738.366 395.378 738.127 395.02Z" fill="#800A29"/>
<path d="M678.567 369.016C680.291 368.931 680.921 370.01 682.022 371.111C683.925 373.02 686.581 374.538 689.312 374.81C690.903 374.968 693.506 374.949 692.955 377.485C692.777 378.309 692.274 378.715 691.486 378.945C689.369 379.291 686.056 378.42 684.107 377.531C681.863 376.506 680.022 375.007 678.312 373.261C677.476 372.408 676.572 371.39 677.174 370.097C677.428 369.554 678.025 369.194 678.567 369.016Z" fill="#CD0E01"/>
<path d="M754.776 443.015C759.883 442.679 764.638 445.391 767.937 449.015C768.802 449.967 769.43 450.724 768.731 452.087C768.449 452.638 767.816 452.872 767.266 452.994C766.714 453.033 766.265 452.954 765.817 452.625C764.652 451.766 763.716 450.454 762.555 449.59C760.556 448.103 758.242 447.164 755.735 447.09C755.079 447.071 754.389 446.988 753.814 446.633C752.866 446.046 752.75 444.598 753.383 443.742C753.769 443.22 754.178 443.107 754.776 443.015Z" fill="#800A29"/>
<path d="M696.791 375.018C698.597 374.912 703.047 374.403 703.025 376.843C703.013 378.076 702.405 378.757 701.257 378.979C700.127 379.06 696.681 379.218 695.803 378.635C695.356 378.338 695.089 377.875 695.007 377.349C694.92 376.785 695.047 376.181 695.397 375.725C695.777 375.229 696.201 375.093 696.791 375.018Z" fill="#CD0E01"/>
<path d="M744.804 443.02C745.932 442.906 747.262 443.02 748.409 442.982C749.503 442.945 750.702 443.262 750.974 444.497C751.106 445.067 750.993 445.666 750.662 446.149C750.246 446.747 749.828 446.882 749.17 446.984C747.331 447.103 742.792 447.623 742.984 444.997C743.073 443.779 743.655 443.173 744.804 443.02Z" fill="#800A29"/>
<g filter="url(#filter1_d_42_583)">
<path d="M821.395 584.406C814.559 580.5 808.602 576.398 803.523 572.102C798.641 567.805 796.199 563.215 796.199 558.332C796.199 548.957 800.203 544.27 808.211 544.27C813.484 544.27 819.344 547.199 825.789 553.059C832.234 558.918 839.461 564.094 847.469 568.586C855.477 572.883 864.168 576.594 873.543 579.719C892.879 586.164 910.75 589.387 927.156 589.387C943.562 589.387 956.16 588.312 964.949 586.164C973.934 584.016 981.453 581.086 987.508 577.375C1000.4 569.367 1006.84 559.113 1006.84 546.613C1006.84 535.09 1001.28 523.469 990.145 511.75C980.77 501.789 967.488 489.875 950.301 476.008L900.203 436.75C850.008 398.078 820.418 362.727 811.434 330.695C808.309 319.562 806.746 307.16 806.746 293.488C806.746 279.816 809.773 266.34 815.828 253.059C822.078 239.777 831.258 228.156 843.367 218.195C869.344 196.516 904.695 185.676 949.422 185.676C972.273 185.676 992.781 189.094 1010.95 195.93C1029.11 202.57 1041.51 208.527 1048.15 213.801C1054.79 219.074 1058.11 223.859 1058.11 228.156C1058.11 237.141 1054.4 241.633 1046.98 241.633C1042.68 241.633 1038.09 239.484 1033.21 235.188C1028.33 230.891 1022.86 227.18 1016.8 224.055C1010.95 220.734 1004.21 217.805 996.59 215.266C980.184 209.797 964.07 207.062 948.25 207.062C919.148 207.062 904.598 216.633 904.598 235.773C904.598 243.781 907.234 251.203 912.508 258.039C921.883 269.953 940.145 287.043 967.293 309.309C994.637 331.379 1016.51 350.715 1032.92 367.316C1049.52 383.918 1062.12 398.859 1070.71 412.141C1084.38 433.039 1091.22 454.816 1091.22 477.473C1091.22 499.934 1087.21 519.074 1079.21 534.895C1071.39 550.52 1060.36 563.996 1046.1 575.324C1016.02 599.152 978.719 611.066 934.188 611.066C889.656 611.066 852.059 602.18 821.395 584.406ZM1165.05 190.949H1314.46V605.5H1165.05V190.949ZM1607.14 483.918L1633.21 485.09C1671.1 485.09 1702.35 472.59 1726.96 447.59C1751.96 422.395 1765.05 389.777 1766.22 349.738C1768.37 288.02 1738.68 246.32 1677.16 224.641C1654.11 216.438 1624.13 212.336 1587.21 212.336H1562.61V605.5H1413.19V190.949H1525.4C1585.95 190.949 1622.47 191.828 1634.97 193.586C1647.47 195.344 1660.46 197.59 1673.93 200.324C1687.61 203.059 1702.25 209.016 1717.88 218.195C1733.7 227.375 1747.08 238.313 1758.02 251.008C1780.09 276.789 1790.73 307.062 1789.95 341.828C1788.78 386.164 1775.79 423.078 1750.98 452.57C1725.79 482.258 1691.02 500.617 1646.69 507.648C1633.8 509.406 1623.64 510.285 1616.22 510.285C1598.64 510.285 1589.85 505.5 1589.85 495.93C1589.85 492.414 1591.41 489.582 1594.54 487.434C1597.66 485.09 1601.86 483.918 1607.14 483.918Z" fill="#CD0E01"/>
<path d="M821.395 584.406C814.559 580.5 808.602 576.398 803.523 572.102C798.641 567.805 796.199 563.215 796.199 558.332C796.199 548.957 800.203 544.27 808.211 544.27C813.484 544.27 819.344 547.199 825.789 553.059C832.234 558.918 839.461 564.094 847.469 568.586C855.477 572.883 864.168 576.594 873.543 579.719C892.879 586.164 910.75 589.387 927.156 589.387C943.562 589.387 956.16 588.312 964.949 586.164C973.934 584.016 981.453 581.086 987.508 577.375C1000.4 569.367 1006.84 559.113 1006.84 546.613C1006.84 535.09 1001.28 523.469 990.145 511.75C980.77 501.789 967.488 489.875 950.301 476.008L900.203 436.75C850.008 398.078 820.418 362.727 811.434 330.695C808.309 319.562 806.746 307.16 806.746 293.488C806.746 279.816 809.773 266.34 815.828 253.059C822.078 239.777 831.258 228.156 843.367 218.195C869.344 196.516 904.695 185.676 949.422 185.676C972.273 185.676 992.781 189.094 1010.95 195.93C1029.11 202.57 1041.51 208.527 1048.15 213.801C1054.79 219.074 1058.11 223.859 1058.11 228.156C1058.11 237.141 1054.4 241.633 1046.98 241.633C1042.68 241.633 1038.09 239.484 1033.21 235.188C1028.33 230.891 1022.86 227.18 1016.8 224.055C1010.95 220.734 1004.21 217.805 996.59 215.266C980.184 209.797 964.07 207.062 948.25 207.062C919.148 207.062 904.598 216.633 904.598 235.773C904.598 243.781 907.234 251.203 912.508 258.039C921.883 269.953 940.145 287.043 967.293 309.309C994.637 331.379 1016.51 350.715 1032.92 367.316C1049.52 383.918 1062.12 398.859 1070.71 412.141C1084.38 433.039 1091.22 454.816 1091.22 477.473C1091.22 499.934 1087.21 519.074 1079.21 534.895C1071.39 550.52 1060.36 563.996 1046.1 575.324C1016.02 599.152 978.719 611.066 934.188 611.066C889.656 611.066 852.059 602.18 821.395 584.406ZM1165.05 190.949H1314.46V605.5H1165.05V190.949ZM1607.14 483.918L1633.21 485.09C1671.1 485.09 1702.35 472.59 1726.96 447.59C1751.96 422.395 1765.05 389.777 1766.22 349.738C1768.37 288.02 1738.68 246.32 1677.16 224.641C1654.11 216.438 1624.13 212.336 1587.21 212.336H1562.61V605.5H1413.19V190.949H1525.4C1585.95 190.949 1622.47 191.828 1634.97 193.586C1647.47 195.344 1660.46 197.59 1673.93 200.324C1687.61 203.059 1702.25 209.016 1717.88 218.195C1733.7 227.375 1747.08 238.313 1758.02 251.008C1780.09 276.789 1790.73 307.062 1789.95 341.828C1788.78 386.164 1775.79 423.078 1750.98 452.57C1725.79 482.258 1691.02 500.617 1646.69 507.648C1633.8 509.406 1623.64 510.285 1616.22 510.285C1598.64 510.285 1589.85 505.5 1589.85 495.93C1589.85 492.414 1591.41 489.582 1594.54 487.434C1597.66 485.09 1601.86 483.918 1607.14 483.918Z" fill="url(#paint5_linear_42_583)" fill-opacity="0.5"/>
</g>
<g clip-path="url(#paint6_diamond_42_583_clip_path)" data-figma-skip-parse="true"><g transform="matrix(0.226916 -0.564426 0.205535 0.165934 2056.51 218)"><rect x="0" y="0" width="1071.33" height="1338.19" fill="url(#paint6_diamond_42_583)" opacity="0.3" shape-rendering="crispEdges"/><rect x="0" y="0" width="1071.33" height="1338.19" transform="scale(1 -1)" fill="url(#paint6_diamond_42_583)" opacity="0.3" shape-rendering="crispEdges"/><rect x="0" y="0" width="1071.33" height="1338.19" transform="scale(-1 1)" fill="url(#paint6_diamond_42_583)" opacity="0.3" shape-rendering="crispEdges"/><rect x="0" y="0" width="1071.33" height="1338.19" transform="scale(-1)" fill="url(#paint6_diamond_42_583)" opacity="0.3" shape-rendering="crispEdges"/></g></g><path d="M1887 542.852C1851.26 542.852 1826.85 542.559 1813.76 541.973L1805.27 562.188C1802.73 567.852 1800.38 573.809 1798.23 580.059C1793.74 592.168 1787.49 598.223 1779.48 598.223C1775.77 598.223 1772.75 597.051 1770.4 594.707C1768.06 592.363 1766.89 589.922 1766.89 587.383C1766.89 583.086 1768.74 578.301 1772.45 573.027C1778.31 564.824 1784.07 554.082 1789.74 540.801C1772.94 539.238 1764.54 534.355 1764.54 526.152C1764.54 517.949 1769.33 513.848 1778.9 513.848C1784.76 513.848 1791.59 514.824 1799.41 516.777L1945.6 161.699L2145.99 595H1993.35L1969.04 542.852H1887ZM1823.14 519.121C1841.89 520.684 1858.68 521.465 1873.53 521.465H1959.37L1886.12 363.555L1823.14 519.121Z" data-figma-gradient-fill="{&#34;type&#34;:&#34;GRADIENT_DIAMOND&#34;,&#34;stops&#34;:[{&#34;color&#34;:{&#34;r&#34;:0.80480778217315674,&#34;g&#34;:0.056374963372945786,&#34;b&#34;:0.0023214665707200766,&#34;a&#34;:1.0},&#34;position&#34;:0.0},{&#34;color&#34;:{&#34;r&#34;:0.043137256056070328,&#34;g&#34;:0.0039215688593685627,&#34;b&#34;:0.39607843756675720,&#34;a&#34;:1.0},&#34;position&#34;:1.0}],&#34;stopsVar&#34;:[{&#34;color&#34;:{&#34;r&#34;:0.80480778217315674,&#34;g&#34;:0.056374963372945786,&#34;b&#34;:0.0023214665707200766,&#34;a&#34;:1.0},&#34;position&#34;:0.0},{&#34;color&#34;:{&#34;r&#34;:0.043137256056070328,&#34;g&#34;:0.0039215688593685627,&#34;b&#34;:0.39607843756675720,&#34;a&#34;:1.0},&#34;position&#34;:1.0}],&#34;transform&#34;:{&#34;m00&#34;:453.83175659179688,&#34;m01&#34;:411.07064819335938,&#34;m02&#34;:1624.0594482421875,&#34;m10&#34;:-1128.8524169921875,&#34;m11&#34;:331.868652343750,&#34;m12&#34;:616.49188232421875},&#34;opacity&#34;:0.30000001192092896,&#34;blendMode&#34;:&#34;NORMAL&#34;,&#34;visible&#34;:true}"/>
<g clip-path="url(#paint7_diamond_42_583_clip_path)" data-figma-skip-parse="true"><g transform="matrix(0.226916 -0.564426 0.205535 0.165934 2068.51 239)"><rect x="0" y="0" width="1071.33" height="1338.19" fill="url(#paint7_diamond_42_583)" opacity="1" shape-rendering="crispEdges"/><rect x="0" y="0" width="1071.33" height="1338.19" transform="scale(1 -1)" fill="url(#paint7_diamond_42_583)" opacity="1" shape-rendering="crispEdges"/><rect x="0" y="0" width="1071.33" height="1338.19" transform="scale(-1 1)" fill="url(#paint7_diamond_42_583)" opacity="1" shape-rendering="crispEdges"/><rect x="0" y="0" width="1071.33" height="1338.19" transform="scale(-1)" fill="url(#paint7_diamond_42_583)" opacity="1" shape-rendering="crispEdges"/></g></g><path d="M1899 563.852C1863.26 563.852 1838.85 563.559 1825.76 562.973L1817.27 583.188C1814.73 588.852 1812.38 594.809 1810.23 601.059C1805.74 613.168 1799.49 619.223 1791.48 619.223C1787.77 619.223 1784.75 618.051 1782.4 615.707C1780.06 613.363 1778.89 610.922 1778.89 608.383C1778.89 604.086 1780.74 599.301 1784.45 594.027C1790.31 585.824 1796.07 575.082 1801.74 561.801C1784.94 560.238 1776.54 555.355 1776.54 547.152C1776.54 538.949 1781.33 534.848 1790.9 534.848C1796.76 534.848 1803.59 535.824 1811.41 537.777L1957.6 182.699L2157.99 616H2005.35L1981.04 563.852H1899ZM1835.14 540.121C1853.89 541.684 1870.68 542.465 1885.53 542.465H1971.37L1898.12 384.555L1835.14 540.121Z" data-figma-gradient-fill="{&#34;type&#34;:&#34;GRADIENT_DIAMOND&#34;,&#34;stops&#34;:[{&#34;color&#34;:{&#34;r&#34;:0.066666670143604279,&#34;g&#34;:0.0039215688593685627,&#34;b&#34;:0.60000002384185791,&#34;a&#34;:1.0},&#34;position&#34;:0.0},{&#34;color&#34;:{&#34;r&#34;:0.043137256056070328,&#34;g&#34;:0.0039215688593685627,&#34;b&#34;:0.39607843756675720,&#34;a&#34;:1.0},&#34;position&#34;:1.0}],&#34;stopsVar&#34;:[{&#34;color&#34;:{&#34;r&#34;:0.066666670143604279,&#34;g&#34;:0.0039215688593685627,&#34;b&#34;:0.60000002384185791,&#34;a&#34;:1.0},&#34;position&#34;:0.0},{&#34;color&#34;:{&#34;r&#34;:0.043137256056070328,&#34;g&#34;:0.0039215688593685627,&#34;b&#34;:0.39607843756675720,&#34;a&#34;:1.0},&#34;position&#34;:1.0}],&#34;transform&#34;:{&#34;m00&#34;:453.83175659179688,&#34;m01&#34;:411.07064819335938,&#34;m02&#34;:1636.0594482421875,&#34;m10&#34;:-1128.8524169921875,&#34;m11&#34;:331.868652343750,&#34;m12&#34;:637.49188232421875},&#34;opacity&#34;:1.0,&#34;blendMode&#34;:&#34;NORMAL&#34;,&#34;visible&#34;:true}"/>
<rect x="23" y="820" width="2183" height="202" rx="30" fill="#0F0183"/>
<g filter="url(#filter2_d_42_583)">
<path d="M104.244 866.909H124.219L158.949 951.71H160.228L194.958 866.909H214.933V976H199.272V897.058H198.26L166.087 975.84H153.09L120.916 897.005H119.904V976H104.244V866.909ZM285.791 914.53V928.379H237.425V914.53H285.791ZM367.796 895.567C367.228 890.524 364.884 886.618 360.765 883.848C356.645 881.043 351.461 879.64 345.211 879.64C340.736 879.64 336.866 880.35 333.598 881.771C330.331 883.156 327.792 885.073 325.981 887.523C324.206 889.938 323.318 892.69 323.318 895.78C323.318 898.372 323.922 900.609 325.129 902.491C326.372 904.374 327.988 905.954 329.976 907.232C332 908.475 334.167 909.523 336.475 910.375C338.783 911.192 341.003 911.866 343.133 912.399L353.787 915.169C357.267 916.021 360.836 917.175 364.493 918.631C368.151 920.087 371.542 922.005 374.667 924.384C377.792 926.763 380.314 929.711 382.231 933.227C384.184 936.742 385.161 940.95 385.161 945.851C385.161 952.03 383.563 957.516 380.367 962.31C377.206 967.104 372.608 970.886 366.571 973.656C360.569 976.426 353.307 977.811 344.785 977.811C336.617 977.811 329.55 976.515 323.584 973.923C317.618 971.33 312.949 967.655 309.575 962.896C306.201 958.102 304.337 952.42 303.982 945.851H320.495C320.814 949.793 322.093 953.077 324.33 955.705C326.603 958.298 329.497 960.233 333.013 961.511C336.564 962.754 340.452 963.376 344.678 963.376C349.33 963.376 353.467 962.648 357.089 961.192C360.747 959.7 363.623 957.641 365.718 955.013C367.814 952.349 368.861 949.242 368.861 945.691C368.861 942.46 367.938 939.814 366.091 937.754C364.28 935.695 361.812 933.99 358.687 932.641C355.598 931.291 352.1 930.102 348.194 929.072L335.303 925.556C326.567 923.177 319.642 919.679 314.529 915.062C309.451 910.446 306.912 904.338 306.912 896.739C306.912 890.453 308.616 884.967 312.025 880.279C315.434 875.592 320.051 871.952 325.875 869.359C331.699 866.732 338.268 865.418 345.584 865.418C352.97 865.418 359.486 866.714 365.133 869.306C370.814 871.898 375.289 875.467 378.556 880.013C381.823 884.523 383.527 889.707 383.669 895.567H367.796ZM421.289 866.909V976H404.83V866.909H421.289ZM445.259 976V866.909H484.144C492.632 866.909 499.663 868.454 505.238 871.543C510.813 874.633 514.986 878.859 517.756 884.221C520.526 889.548 521.911 895.549 521.911 902.225C521.911 908.937 520.508 914.974 517.703 920.336C514.933 925.663 510.742 929.888 505.132 933.013C499.556 936.103 492.543 937.648 484.091 937.648H457.351V923.692H482.6C487.962 923.692 492.312 922.768 495.65 920.922C498.988 919.04 501.438 916.483 503.001 913.251C504.563 910.02 505.345 906.344 505.345 902.225C505.345 898.106 504.563 894.448 503.001 891.252C501.438 888.056 498.97 885.553 495.597 883.741C492.259 881.93 487.855 881.025 482.387 881.025H461.719V976H445.259ZM538.85 976H521.378L560.636 866.909H579.652L618.91 976H601.438L570.597 886.724H569.745L538.85 976ZM541.779 933.28H598.456V947.129H541.779V933.28ZM674.361 866.909H694.336L729.066 951.71H730.345L765.075 866.909H785.05V976H769.389V897.058H768.377L736.204 975.84H723.207L691.034 897.005H690.022V976H674.361V866.909ZM903.742 921.455C903.742 933.102 901.612 943.116 897.35 951.497C893.089 959.842 887.247 966.27 879.825 970.78C872.439 975.254 864.041 977.491 854.63 977.491C845.184 977.491 836.75 975.254 829.328 970.78C821.942 966.27 816.118 959.825 811.857 951.444C807.595 943.063 805.465 933.067 805.465 921.455C805.465 909.807 807.595 899.81 811.857 891.465C816.118 883.085 821.942 876.657 829.328 872.183C836.75 867.673 845.184 865.418 854.63 865.418C864.041 865.418 872.439 867.673 879.825 872.183C887.247 876.657 893.089 883.085 897.35 891.465C901.612 899.81 903.742 909.807 903.742 921.455ZM887.443 921.455C887.443 912.577 886.004 905.102 883.128 899.029C880.287 892.921 876.381 888.305 871.409 885.18C866.473 882.019 860.88 880.439 854.63 880.439C848.345 880.439 842.734 882.019 837.798 885.18C832.862 888.305 828.955 892.921 826.079 899.029C823.238 905.102 821.818 912.577 821.818 921.455C821.818 930.332 823.238 937.825 826.079 943.933C828.955 950.006 832.862 954.622 837.798 957.783C842.734 960.908 848.345 962.47 854.63 962.47C860.88 962.47 866.473 960.908 871.409 957.783C876.381 954.622 880.287 950.006 883.128 943.933C886.004 937.825 887.443 930.332 887.443 921.455ZM924.263 976V866.909H964.214C971.955 866.909 978.365 868.187 983.443 870.744C988.521 873.266 992.321 876.692 994.842 881.025C997.364 885.322 998.624 890.169 998.624 895.567C998.624 900.112 997.79 903.947 996.121 907.072C994.452 910.162 992.214 912.648 989.409 914.53C986.639 916.376 983.585 917.726 980.247 918.578V919.643C983.869 919.821 987.403 920.993 990.847 923.159C994.327 925.29 997.204 928.326 999.476 932.268C1001.75 936.21 1002.89 941.004 1002.89 946.65C1002.89 952.225 1001.57 957.232 998.944 961.671C996.351 966.075 992.339 969.572 986.905 972.165C981.472 974.722 974.53 976 966.078 976H924.263ZM940.723 961.884H964.48C972.364 961.884 978.01 960.357 981.419 957.303C984.828 954.249 986.533 950.432 986.533 945.851C986.533 942.406 985.663 939.246 983.922 936.369C982.182 933.493 979.697 931.202 976.465 929.498C973.269 927.793 969.469 926.941 965.066 926.941H940.723V961.884ZM940.723 914.104H962.775C966.469 914.104 969.789 913.393 972.736 911.973C975.719 910.553 978.081 908.564 979.821 906.007C981.597 903.415 982.484 900.361 982.484 896.845C982.484 892.335 980.904 888.553 977.744 885.499C974.583 882.445 969.736 880.918 963.202 880.918H940.723V914.104ZM1038.87 866.909V976H1022.41V866.909H1038.87ZM1062.84 976V866.909H1079.3V961.831H1128.73V976H1062.84ZM1147.51 976V866.909H1215.9V881.078H1163.97V914.317H1212.33V928.433H1163.97V961.831H1216.54V976H1147.51ZM1277.58 866.909H1297.56L1332.29 951.71H1333.57L1368.3 866.909H1388.27V976H1372.61V897.058H1371.6L1339.43 975.84H1326.43L1294.26 897.005H1293.24V976H1277.58V866.909ZM1506.96 921.455C1506.96 933.102 1504.83 943.116 1500.57 951.497C1496.31 959.842 1490.47 966.27 1483.05 970.78C1475.66 975.254 1467.26 977.491 1457.85 977.491C1448.41 977.491 1439.97 975.254 1432.55 970.78C1425.16 966.27 1419.34 959.825 1415.08 951.444C1410.82 943.063 1408.69 933.067 1408.69 921.455C1408.69 909.807 1410.82 899.81 1415.08 891.465C1419.34 883.085 1425.16 876.657 1432.55 872.183C1439.97 867.673 1448.41 865.418 1457.85 865.418C1467.26 865.418 1475.66 867.673 1483.05 872.183C1490.47 876.657 1496.31 883.085 1500.57 891.465C1504.83 899.81 1506.96 909.807 1506.96 921.455ZM1490.67 921.455C1490.67 912.577 1489.23 905.102 1486.35 899.029C1483.51 892.921 1479.6 888.305 1474.63 885.18C1469.7 882.019 1464.1 880.439 1457.85 880.439C1451.57 880.439 1445.96 882.019 1441.02 885.18C1436.08 888.305 1432.18 892.921 1429.3 899.029C1426.46 905.102 1425.04 912.577 1425.04 921.455C1425.04 930.332 1426.46 937.825 1429.3 943.933C1432.18 950.006 1436.08 954.622 1441.02 957.783C1445.96 960.908 1451.57 962.47 1457.85 962.47C1464.1 962.47 1469.7 960.908 1474.63 957.783C1479.6 954.622 1483.51 950.006 1486.35 943.933C1489.23 937.825 1490.67 930.332 1490.67 921.455ZM1615.54 866.909V976H1600.41L1544.96 895.993H1543.95V976H1527.49V866.909H1542.72L1598.22 947.023H1599.24V866.909H1615.54ZM1639.55 976V866.909H1707.94V881.078H1656.01V914.317H1704.37V928.433H1656.01V961.831H1708.58V976H1639.55ZM1721.51 866.909H1740.21L1768.71 916.501H1769.88L1798.38 866.909H1817.07L1777.49 933.173V976H1761.09V933.173L1721.51 866.909ZM1872.31 976V866.909H1888.77V961.831H1938.2V976H1872.31ZM1937.39 881.078V866.909H2021.82V881.078H1987.78V976H1971.37V881.078H1937.39ZM2075.79 976H2040.47V866.909H2076.91C2087.6 866.909 2096.78 869.093 2104.45 873.461C2112.12 877.793 2118 884.026 2122.08 892.158C2126.2 900.254 2128.26 909.967 2128.26 921.295C2128.26 932.658 2126.18 942.424 2122.03 950.592C2117.91 958.759 2111.94 965.045 2104.13 969.448C2096.32 973.816 2086.87 976 2075.79 976ZM2056.93 961.618H2074.88C2083.19 961.618 2090.1 960.055 2095.61 956.93C2101.11 953.77 2105.23 949.207 2107.96 943.241C2110.7 937.239 2112.07 929.924 2112.07 921.295C2112.07 912.737 2110.7 905.474 2107.96 899.509C2105.26 893.543 2101.23 889.015 2095.87 885.925C2090.51 882.836 2083.85 881.291 2075.9 881.291H2056.93V961.618Z" fill="white"/>
</g>
</g>
</g>
<defs>
<filter id="filter0_d_42_583" x="19" y="29" width="2191" height="1001" filterUnits="userSpaceOnUse" color-interpolation-filters="sRGB">
<feFlood flood-opacity="0" result="BackgroundImageFix"/>
<feColorMatrix in="SourceAlpha" type="matrix" values="0 0 0 0 0 0 0 0 0 0 0 0 0 0 0 0 0 0 127 0" result="hardAlpha"/>
<feOffset dy="4"/>
<feGaussianBlur stdDeviation="2"/>
<feComposite in2="hardAlpha" operator="out"/>
<feColorMatrix type="matrix" values="0 0 0 0 0.027451 0 0 0 0 0.00392157 0 0 0 0 0.2 0 0 0 1 0"/>
<feBlend mode="normal" in2="BackgroundImageFix" result="effect1_dropShadow_42_583"/>
<feBlend mode="normal" in="SourceGraphic" in2="effect1_dropShadow_42_583" result="shape"/>
</filter>
<clipPath id="paint0_diamond_42_583_clip_path"><path d="M72.5664 599.395C68.8555 599.004 66.0234 597.344 64.0703 594.414C62.1172 591.484 61.3359 588.262 61.7266 584.746C62.7031 578.691 64.5586 573.125 67.293 568.047C70.0273 562.969 71.9805 559.16 73.1523 556.621C74.5195 554.082 75.8867 551.25 77.2539 548.125L88.3867 522.344L208.797 161.699L338.289 411.895L463.973 161.699L614.266 595H456.941L384.285 371.172L271.785 605.547L153.426 394.609L112.41 522.637C105.965 536.895 101.375 549.004 98.6406 558.965C95.9062 568.926 93.6602 576.641 91.9023 582.109C87.9961 594.414 81.5508 600.176 72.5664 599.395Z"/></clipPath><clipPath id="paint1_diamond_42_583_clip_path"><path d="M84.5664 620.395C80.8555 620.004 78.0234 618.344 76.0703 615.414C74.1172 612.484 73.3359 609.262 73.7266 605.746C74.7031 599.691 76.5586 594.125 79.293 589.047C82.0273 583.969 83.9805 580.16 85.1523 577.621C86.5195 575.082 87.8867 572.25 89.2539 569.125L100.387 543.344L220.797 182.699L350.289 432.895L475.973 182.699L626.266 616H468.941L396.285 392.172L283.785 626.547L165.426 415.609L124.41 543.637C117.965 557.895 113.375 570.004 110.641 579.965C107.906 589.926 105.66 597.641 103.902 603.109C99.9961 615.414 93.5508 621.176 84.5664 620.395Z"/></clipPath><filter id="filter1_d_42_583" x="787.199" y="185.676" width="1012.92" height="446.391" filterUnits="userSpaceOnUse" color-interpolation-filters="sRGB">
<feFlood flood-opacity="0" result="BackgroundImageFix"/>
<feColorMatrix in="SourceAlpha" type="matrix" values="0 0 0 0 0 0 0 0 0 0 0 0 0 0 0 0 0 0 127 0" result="hardAlpha"/>
<feOffset dy="12"/>
<feGaussianBlur stdDeviation="4.5"/>
<feComposite in2="hardAlpha" operator="out"/>
<feColorMatrix type="matrix" values="0 0 0 0 0 0 0 0 0 0 0 0 0 0 0 0 0 0 0.5 0"/>
<feBlend mode="normal" in2="BackgroundImageFix" result="effect1_dropShadow_42_583"/>
<feBlend mode="normal" in="SourceGraphic" in2="effect1_dropShadow_42_583" result="shape"/>
</filter>
<clipPath id="paint6_diamond_42_583_clip_path"><path d="M1887 542.852C1851.26 542.852 1826.85 542.559 1813.76 541.973L1805.27 562.188C1802.73 567.852 1800.38 573.809 1798.23 580.059C1793.74 592.168 1787.49 598.223 1779.48 598.223C1775.77 598.223 1772.75 597.051 1770.4 594.707C1768.06 592.363 1766.89 589.922 1766.89 587.383C1766.89 583.086 1768.74 578.301 1772.45 573.027C1778.31 564.824 1784.07 554.082 1789.74 540.801C1772.94 539.238 1764.54 534.355 1764.54 526.152C1764.54 517.949 1769.33 513.848 1778.9 513.848C1784.76 513.848 1791.59 514.824 1799.41 516.777L1945.6 161.699L2145.99 595H1993.35L1969.04 542.852H1887ZM1823.14 519.121C1841.89 520.684 1858.68 521.465 1873.53 521.465H1959.37L1886.12 363.555L1823.14 519.121Z"/></clipPath><clipPath id="paint7_diamond_42_583_clip_path"><path d="M1899 563.852C1863.26 563.852 1838.85 563.559 1825.76 562.973L1817.27 583.188C1814.73 588.852 1812.38 594.809 1810.23 601.059C1805.74 613.168 1799.49 619.223 1791.48 619.223C1787.77 619.223 1784.75 618.051 1782.4 615.707C1780.06 613.363 1778.89 610.922 1778.89 608.383C1778.89 604.086 1780.74 599.301 1784.45 594.027C1790.31 585.824 1796.07 575.082 1801.74 561.801C1784.94 560.238 1776.54 555.355 1776.54 547.152C1776.54 538.949 1781.33 534.848 1790.9 534.848C1796.76 534.848 1803.59 535.824 1811.41 537.777L1957.6 182.699L2157.99 616H2005.35L1981.04 563.852H1899ZM1835.14 540.121C1853.89 541.684 1870.68 542.465 1885.53 542.465H1971.37L1898.12 384.555L1835.14 540.121Z"/></clipPath><filter id="filter2_d_42_583" x="100.244" y="865.418" width="2032.01" height="120.393" filterUnits="userSpaceOnUse" color-interpolation-filters="sRGB">
<feFlood flood-opacity="0" result="BackgroundImageFix"/>
<feColorMatrix in="SourceAlpha" type="matrix" values="0 0 0 0 0 0 0 0 0 0 0 0 0 0 0 0 0 0 127 0" result="hardAlpha"/>
<feOffset dy="4"/>
<feGaussianBlur stdDeviation="2"/>
<feComposite in2="hardAlpha" operator="out"/>
<feColorMatrix type="matrix" values="0 0 0 0 0 0 0 0 0 0 0 0 0 0 0 0 0 0 0.25 0"/>
<feBlend mode="normal" in2="BackgroundImageFix" result="effect1_dropShadow_42_583"/>
<feBlend mode="normal" in="SourceGraphic" in2="effect1_dropShadow_42_583" result="shape"/>
</filter>
<linearGradient id="paint0_diamond_42_583" x1="0" y1="0" x2="500" y2="500" gradientUnits="userSpaceOnUse">
<stop stop-color="#CD0E01"/>
<stop offset="1" stop-color="#0B0165"/>
</linearGradient>
<linearGradient id="paint1_diamond_42_583" x1="0" y1="0" x2="500" y2="500" gradientUnits="userSpaceOnUse">
<stop stop-color="#110199"/>
<stop offset="1" stop-color="#0B0165"/>
</linearGradient>
<linearGradient id="paint2_linear_42_583" x1="636.012" y1="460.639" x2="633.619" y2="462.893" gradientUnits="userSpaceOnUse">
<stop stop-color="#221F20"/>
<stop offset="1" stop-color="#EDEDFF"/>
</linearGradient>
<linearGradient id="paint3_linear_42_583" x1="719.965" y1="503.844" x2="720.698" y2="504.937" gradientUnits="userSpaceOnUse">
<stop stop-color="#070133"/>
<stop offset="1" stop-color="#EDEDFF"/>
</linearGradient>
<linearGradient id="paint4_linear_42_583" x1="778.829" y1="410.99" x2="667.611" y2="410.948" gradientUnits="userSpaceOnUse">
<stop stop-color="#800A29"/>
<stop offset="1" stop-color="#CD0E01"/>
</linearGradient>
<linearGradient id="paint5_linear_42_583" x1="1288.04" y1="210" x2="1328.81" y2="1325.79" gradientUnits="userSpaceOnUse">
<stop offset="0.37596" stop-color="#0B0165" stop-opacity="0.8"/>
<stop offset="1" stop-color="#070133" stop-opacity="0.8"/>
</linearGradient>
<linearGradient id="paint6_diamond_42_583" x1="0" y1="0" x2="500" y2="500" gradientUnits="userSpaceOnUse">
<stop stop-color="#CD0E01"/>
<stop offset="1" stop-color="#0B0165"/>
</linearGradient>
<linearGradient id="paint7_diamond_42_583" x1="0" y1="0" x2="500" y2="500" gradientUnits="userSpaceOnUse">
<stop stop-color="#110199"/>
<stop offset="1" stop-color="#0B0165"/>
</linearGradient>
<clipPath id="clip0_42_583">
<rect x="23" y="29" width="2183" height="993" rx="30" fill="white"/>
</clipPath>
</defs>
</svg>
